<?xml version="1.0" encoding="utf-8"?>
<!-- Generator: Adobe Illustrator 24.0.2, SVG Export Plug-In . SVG Version: 6.00 Build 0)  -->
<svg version="1.1" id="Layer_1" xmlns="http://www.w3.org/2000/svg" xmlns:xlink="http://www.w3.org/1999/xlink" x="0px" y="0px"
	 viewBox="0 0 180 177.85" style="enable-background:new 0 0 180 177.85;" xml:space="preserve">
<style type="text/css">
	.st0{fill:#31429A;}
	.st1{fill:#EC2125;}
	.st2{fill:#FFFEFE;}
</style>
<g>
	<path class="st0" d="M105.93,89.14c-20.09,0-40.17,0-60.26,0.01c-0.36,0-0.54-0.09-0.69-0.44c-1.37-3.34-2.99-6.55-5.17-9.45
		c-1.83-2.43-3.79-4.74-6.24-6.58c-0.58-0.43-1.2-0.78-1.86-1.06c-1.09-0.47-2.05-0.28-2.98,0.42c-1.54,1.17-2.9,2.53-4.35,3.79
		c-2.94,2.54-6.24,4.46-10.05,5.37c-1.73,0.41-3.45,0.21-5.16-0.13c-2.2-0.43-4.31-1.11-6.26-2.24c-0.77-0.45-1.41-1.04-1.98-1.7
		c-0.67-0.77-0.87-1.7-0.91-2.69c-0.09-2.65,0.34-5.23,0.89-7.8c0.64-3.01,1.55-5.93,2.94-8.7c0.76-1.51,0.98-3.18,1.14-4.85
		c0.27-2.77,0.36-5.56,0.57-8.33c0.18-2.33,0.75-4.54,1.85-6.62c0.88-1.67,1.66-3.38,2.32-5.15c0.29-0.79,0.21-1.46-0.2-2.18
		c-0.71-1.24-1.6-2.34-2.5-3.45c-1.31-1.61-2.58-3.26-3.31-5.23c-0.4-1.08-0.63-2.2-0.67-3.34c-0.14-3.64,0.09-7.25,1.11-10.78
		c0.35-1.22,0.8-2.39,1.58-3.42C6.05,4.18,6.42,3.82,6.91,3.6c0.79-0.34,1.63-0.13,2.11,0.59c0.96,1.45,1.63,3.04,2.29,4.64
		c1.31,3.2,2.67,6.38,4.49,9.34c0.52,0.85,1.07,1.69,1.81,2.38c0.11,0.11,0.23,0.21,0.36,0.3c1.16,0.81,2.01,0.57,2.62-0.73
		c0.31-0.68,0.4-1.41,0.45-2.14c0.09-1.14,0.13-2.28,0.1-3.43c-0.08-2.38,0.45-4.6,1.54-6.72c1.2-2.33,2.39-4.66,3.87-6.83
		c1.08-1.58,1.95-1.06,2.72,0.04c0.79,1.12,1.31,2.37,1.8,3.63c1.17,3,2.25,6.04,3.08,9.16c0.45,1.67,0.47,3.36,0.31,5.07
		c-0.15,1.56-0.25,3.12,0.12,4.67c0.33,1.4,1.16,2.34,2.52,2.84c2.88,1.06,5.83,1.91,8.76,2.82c5.14,1.6,9.67,4.28,13.83,7.65
		c3.63,2.95,7.13,6.05,10.65,9.13c1.73,1.51,3.44,3.05,5.46,4.18c1.6,0.89,3.33,1.33,5.14,1.46c5.74,0.4,11.49,0.13,17.23,0.2
		c0.5,0.01,0.96-0.26,1.43-0.42c6.96-2.32,13.9-4.69,20.88-6.94c4.73-1.52,9.48-3.02,14.32-4.15c1.84-0.43,3.69-0.83,5.58-0.97
		c2.31-0.17,4.49,0.41,6.61,1.24c3.16,1.24,6.23,2.68,9.35,4.03c1.86,0.8,3.28,2.23,4.61,3.71c3.13,3.49,5.52,7.44,7.28,11.8
		c1.17,2.9,1.28,5.9,1.13,8.94c-0.11,2.25-0.29,4.49-0.54,6.73c-0.35,3.07-0.79,6.14-1.35,9.18c-0.23,1.21-0.48,2.42-0.7,3.63
		c-0.07,0.37-0.19,0.52-0.62,0.52c-6.07-0.02-12.15-0.01-18.22-0.01C133.93,89.14,119.93,89.14,105.93,89.14z M98.09,82.84
		c0.01,0.02,0.03,0.04,0.04,0.06c0-0.02,0.01-0.04,0.01-0.05c-0.02,0-0.04,0-0.06,0c0.06-0.16-0.03-0.3-0.08-0.45
		c-0.82-2.53-1.63-5.07-2.47-7.6c-0.09-0.28-0.04-0.41,0.18-0.57c1.33-0.95,2.66-1.92,3.99-2.88c0.95-0.69,1.9-1.39,2.96-2.16
		c-0.29,0-0.45,0-0.6,0c-2.63,0-5.26-0.01-7.89,0.01c-0.36,0-0.51-0.12-0.61-0.45c-0.81-2.54-1.63-5.07-2.46-7.59
		c-0.04-0.11,0-0.29-0.21-0.33c-0.86,2.64-1.72,5.27-2.56,7.91c-0.11,0.33-0.23,0.47-0.6,0.47c-2.68-0.02-5.35-0.01-8.03-0.01
		c-0.11,0-0.24-0.04-0.35,0.08c0.14,0.1,0.26,0.2,0.38,0.29c2.12,1.54,4.24,3.09,6.37,4.62c0.29,0.21,0.35,0.38,0.24,0.72
		c-0.72,2.15-1.43,4.31-2.12,6.48c-0.15,0.48-0.4,0.94-0.41,1.47c-0.02,0-0.04,0-0.06,0c0.01,0.02,0.01,0.04,0.02,0.05
		c0.01-0.02,0.03-0.04,0.04-0.06c0.13,0.01,0.2-0.08,0.28-0.15c2.17-1.58,4.35-3.15,6.52-4.74c0.23-0.17,0.39-0.23,0.65-0.03
		c1.38,1.02,2.77,2.04,4.17,3.04C96.31,81.59,97.15,82.28,98.09,82.84z M114.3,82.95c0.21-0.14,0.33-0.22,0.45-0.3
		c2.15-1.56,4.3-3.12,6.44-4.69c0.28-0.2,0.46-0.19,0.72,0.01c2.09,1.54,4.19,3.06,6.29,4.58c0.15,0.11,0.31,0.22,0.56,0.39
		c-0.05-0.2-0.07-0.27-0.09-0.34c-0.84-2.58-1.67-5.16-2.51-7.73c-0.1-0.31-0.05-0.46,0.21-0.65c1.73-1.23,3.44-2.49,5.16-3.74
		c0.54-0.4,1.08-0.8,1.72-1.27c-0.29,0-0.45,0-0.61,0c-2.63,0-5.26-0.01-7.89,0.01c-0.34,0-0.48-0.1-0.58-0.43
		c-0.41-1.34-0.86-2.67-1.29-4c-0.43-1.33-0.87-2.66-1.33-4.06c-0.07,0.18-0.11,0.27-0.14,0.37c-0.83,2.55-1.66,5.09-2.47,7.65
		c-0.11,0.35-0.26,0.48-0.65,0.48c-2.63-0.02-5.26-0.01-7.89-0.01c-0.14,0-0.31-0.07-0.44,0.08c0.07,0.05,0.13,0.1,0.19,0.14
		c2.2,1.6,4.39,3.2,6.6,4.79c0.24,0.17,0.31,0.32,0.21,0.61c-0.37,1.08-0.71,2.16-1.07,3.24C115.37,79.66,114.85,81.26,114.3,82.95z
		 M144.09,82.86c0.22-0.03,0.33-0.15,0.45-0.24c2.12-1.54,4.25-3.08,6.36-4.64c0.31-0.23,0.5-0.21,0.8,0.01
		c1.44,1.08,2.9,2.12,4.35,3.18c0.79,0.58,1.59,1.15,2.46,1.77c-0.04-0.16-0.05-0.22-0.07-0.28c-0.85-2.61-1.69-5.22-2.55-7.82
		c-0.1-0.31-0.04-0.47,0.21-0.65c1.99-1.43,3.97-2.87,5.96-4.31c0.28-0.2,0.55-0.42,0.93-0.7c-0.34,0-0.54,0-0.75,0
		c-2.57,0-5.13-0.01-7.7,0.01c-0.35,0-0.52-0.08-0.63-0.44c-0.33-1.12-0.71-2.23-1.07-3.34c-0.5-1.55-1.01-3.09-1.54-4.71
		c-0.07,0.17-0.11,0.27-0.14,0.37c-0.84,2.56-1.68,5.12-2.5,7.68c-0.11,0.33-0.24,0.43-0.58,0.43c-2.63-0.01-5.26-0.01-7.89,0
		c-0.16,0-0.33-0.04-0.5,0.08c2.28,1.66,4.52,3.3,6.77,4.92c0.26,0.19,0.33,0.34,0.22,0.65c-0.57,1.71-1.12,3.43-1.68,5.15
		C144.7,80.94,144.4,81.89,144.09,82.86z M53.24,82.96c0.21-0.15,0.34-0.23,0.47-0.32c2.13-1.55,4.27-3.1,6.4-4.67
		c0.27-0.2,0.44-0.23,0.72-0.02c1.55,1.16,3.12,2.29,4.69,3.43c0.69,0.5,1.38,1,2.08,1.5c0.07-0.14,0.01-0.22-0.01-0.31
		c-0.84-2.58-1.66-5.16-2.51-7.73c-0.1-0.3-0.05-0.44,0.2-0.62c1.72-1.23,3.42-2.46,5.13-3.7c0.56-0.4,1.11-0.82,1.66-1.23
		c-0.23-0.09-0.41-0.09-0.59-0.09c-2.6,0-5.2-0.01-7.8,0.01c-0.32,0-0.46-0.1-0.55-0.4c-0.61-1.92-1.24-3.82-1.86-5.73
		c-0.25-0.76-0.5-1.52-0.78-2.37c-0.1,0.3-0.17,0.51-0.24,0.72c-0.8,2.46-1.61,4.92-2.39,7.38c-0.1,0.3-0.22,0.41-0.55,0.41
		c-2.36-0.02-4.73-0.01-7.09-0.01c-0.43,0-0.86,0-1.41,0c0.16,0.13,0.21,0.17,0.27,0.22c2.2,1.6,4.39,3.2,6.6,4.79
		c0.25,0.18,0.34,0.34,0.22,0.65c-0.25,0.69-0.47,1.39-0.69,2.08C54.55,78.9,53.92,80.87,53.24,82.96z"/>
	<path class="st1" d="M105.98,93.6c16.81,0,33.63,0,50.44,0c2.69,0,5.39-0.01,8.08-0.03c0.42,0,0.59,0.12,0.68,0.55
		c0.73,3.58,2.35,6.76,4.31,9.8c1.66,2.57,3.42,5.05,5.53,7.27c0.82,0.86,1.68,1.67,2.79,2.18c0.8,0.37,1.16,1.16,1.45,1.94
		c0.7,1.91,0.83,3.9,0.7,5.92c-0.11,1.65-0.42,3.25-1.09,4.77c-0.16,0.36-0.33,0.71-0.58,1.01c-0.3,0.35-0.55,0.34-0.84-0.04
		c-0.22-0.29-0.36-0.62-0.48-0.96c-0.64-1.93-1.48-3.77-2.49-5.54c-0.75-1.31-1.17-2.71-1.18-4.24c-0.01-1.26-0.57-2.35-1.27-3.37
		c-1.39-2.01-3.08-3.78-4.77-5.54c-0.78-0.81-1.59-1.6-2.51-2.25c-0.91-0.64-1.4-0.53-1.96,0.45c-0.31,0.54-0.43,1.13-0.45,1.75
		c-0.08,3.55,0.34,7.05,1.07,10.52c0.8,3.82,1.87,7.58,2.81,11.37c0.53,2.16,1.03,4.32,1.16,6.55c0.11,1.92-0.28,3.72-1.45,5.26
		c-0.91,1.2-1.08,2.61-1.23,4.02c-0.36,3.58-0.43,7.19-0.56,10.78c-0.09,2.35-0.16,4.69-0.22,7.04c-0.01,0.45-0.12,0.84-0.36,1.23
		c-1.86,3.02-3.66,6.07-5.57,9.06c-1.58,2.47-3.69,3.99-6.62,4.41c-2.37,0.34-4.73,0.5-7.1,0.11c-1.73-0.28-3.23-1.05-4.46-2.3
		c-1.05-1.07-1.14-2.09-0.32-3.34c0.9-1.37,2.06-2.51,3.19-3.68c1.62-1.68,3.26-3.34,4.9-5c0.21-0.21,0.31-0.44,0.34-0.73
		c0.2-2.12,0.34-4.24,0.59-6.35c0.21-1.74,0.81-3.37,1.35-5.01c0.35-1.07,0.72-2.12,1.09-3.19c0.08-0.22,0.11-0.45,0.1-0.69
		c-0.15-6.18-0.29-12.36-0.43-18.53c-0.01-0.22-0.02-0.43-0.13-0.63c-1.73-3.43-3.35-6.91-5.17-10.29c-0.54-1-1.13-1.98-1.7-2.96
		c-0.31-0.53-0.71-0.99-1.17-1.39c-0.67-0.59-1.27-0.74-1.78-0.44c-0.68,0.4-1.1,1.28-0.91,2.04c0.17,0.68,0.37,1.35,0.61,2.02
		c0.71,2.01,1.47,4.01,2.16,6.04c0.52,1.52,0.69,3.06-0.1,4.55c-0.53,0.99-1.34,1.77-2.09,2.58c-3.24,3.47-6.71,6.7-10.18,9.94
		c-0.23,0.21-0.32,0.42-0.32,0.73c-0.02,2.65,0.01,5.29-0.04,7.94c-0.03,1.8-0.63,3.31-1.87,4.61c-2.06,2.17-4.02,4.42-5.65,6.94
		c-1.33,2.06-2.48,4.23-3.78,6.3c-0.65,1.03-1.32,2.05-2.08,3.01c-0.41,0.52-0.88,0.91-1.56,1.05c-3.48,0.7-6.94,0.88-10.4-0.13
		c-0.63-0.18-1.23-0.46-1.77-0.84c-1.17-0.8-1.61-1.98-1.27-3.35c0.24-0.99,0.72-1.86,1.29-2.68c2.93-4.27,6.04-8.4,9.07-12.6
		c1.98-2.75,4.01-5.47,5.69-8.42c0.7-1.23,1.22-2.5,1.33-3.96c0.11-1.4,0.73-2.7,1.21-4.02c0.32-0.88,0.58-1.78,0.79-2.69
		c0.26-1.13,0.02-2.21-0.31-3.27c-0.81-2.6-1.98-5.06-3.15-7.5c-1.33-2.77-2.63-5.56-4.22-8.2c-0.14-0.24-0.31-0.47-0.46-0.71
		c-0.82-1.26-2.01-1.81-3.48-1.87c-2.1-0.08-4.19,0.11-6.26,0.43c-2.69,0.41-5.35,0.99-8.05,1.31c-2.31,0.28-4.63,0.49-6.95,0.71
		c-3.21,0.3-6.42,0.55-9.61,1.02c-0.57,0.08-0.99,0.33-1.33,0.78c-1.22,1.58-2.16,3.32-3.06,5.09c-1.61,3.15-2.88,6.43-3.72,9.88
		c-0.69,2.85-0.84,5.74-0.87,8.66c-0.02,2.2,0.52,4.26,1.17,6.33c0.59,1.86,1.18,3.72,1.7,5.6c0.49,1.78,1.55,3.1,3.04,4.13
		c0.86,0.59,1.72,1.2,2.57,1.8c0.29,0.21,0.57,0.44,0.84,0.68c0.98,0.89,1.06,1.45,0.32,2.56c-1.07,1.59-2.32,3.03-3.57,4.47
		c-1.87,2.15-3.79,4.26-5.86,6.21c-0.4,0.38-0.81,0.74-1.25,1.06c-0.27,0.2-0.53,0.22-0.83,0.08c-0.66-0.3-1.24-0.72-1.84-1.11
		c-0.52-0.34-1.07-0.65-1.68-0.81c-0.94-0.24-1.37,0.01-1.54,0.96c-0.2,1.09-0.33,2.19-0.55,3.28c-0.3,1.5-0.49,1.64-2.02,1.82
		c-2.23,0.26-4.46,0.33-6.7,0.35c-2.96,0.04-5.92-0.07-8.87-0.26c-1.51-0.1-2.2-0.65-2.42-1.98c-0.11-0.68,0.15-1.3,0.4-1.9
		c0.79-1.9,1.86-3.64,2.95-5.37c1.25-1.99,2.52-3.96,3.91-5.84c1.22-1.65,1.86-3.46,2.12-5.47c0.39-2.96,0.72-5.95,1.8-8.75
		c0.98-2.53,0.85-5.13,0.85-7.73c0-3.99-0.11-7.98-0.32-11.97c-0.2-3.78-0.85-7.47-1.81-11.13c-1.5-5.67-2.98-11.35-4.34-17.06
		c-0.25-1.05-0.51-2.1-0.65-3.16c-0.03-0.19-0.05-0.37-0.06-0.56c-0.02-0.64,0.03-0.7,0.68-0.7c4.96-0.05,9.92-0.11,14.89-0.13
		c10.94-0.05,21.89-0.08,32.83-0.11c3.63-0.01,7.26,0,10.9,0C105.98,93.67,105.98,93.63,105.98,93.6z"/>
	<path class="st2" d="M83.82,82.85c0-0.53,0.25-0.99,0.41-1.47c0.69-2.17,1.4-4.33,2.12-6.48c0.11-0.34,0.06-0.51-0.24-0.72
		c-2.13-1.53-4.25-3.08-6.37-4.62c-0.12-0.09-0.24-0.18-0.38-0.29c0.11-0.12,0.24-0.08,0.35-0.08c2.68,0,5.35-0.01,8.03,0.01
		c0.37,0,0.5-0.14,0.6-0.47c0.84-2.64,1.71-5.27,2.56-7.91c0.2,0.04,0.17,0.22,0.21,0.33c0.83,2.53,1.65,5.06,2.46,7.59
		c0.11,0.33,0.25,0.46,0.61,0.45c2.63-0.02,5.26-0.01,7.89-0.01c0.15,0,0.3,0,0.6,0c-1.06,0.78-2.01,1.47-2.96,2.16
		c-1.33,0.96-2.65,1.93-3.99,2.88c-0.23,0.16-0.28,0.29-0.18,0.57c0.84,2.53,1.65,5.06,2.47,7.6c0.05,0.15,0.13,0.28,0.08,0.45
		l0.01-0.01c-0.94-0.56-1.78-1.25-2.67-1.89c-1.4-1-2.79-2.01-4.17-3.04c-0.26-0.19-0.42-0.13-0.65,0.03
		c-2.17,1.59-4.34,3.16-6.52,4.74C84,82.76,83.93,82.85,83.82,82.85L83.82,82.85z"/>
	<path class="st2" d="M114.3,82.95c0.55-1.7,1.07-3.3,1.59-4.89c0.35-1.08,0.7-2.17,1.07-3.24c0.1-0.29,0.03-0.44-0.21-0.61
		c-2.21-1.59-4.4-3.19-6.6-4.79c-0.06-0.04-0.12-0.09-0.19-0.14c0.14-0.15,0.3-0.08,0.44-0.08c2.63-0.01,5.26-0.01,7.89,0.01
		c0.39,0,0.53-0.13,0.65-0.48c0.81-2.55,1.64-5.1,2.47-7.65c0.03-0.1,0.07-0.19,0.14-0.37c0.46,1.4,0.9,2.73,1.33,4.06
		c0.44,1.33,0.89,2.66,1.29,4c0.1,0.33,0.24,0.43,0.58,0.43c2.63-0.01,5.26-0.01,7.89-0.01c0.16,0,0.31,0,0.61,0
		c-0.64,0.47-1.18,0.87-1.72,1.27c-1.72,1.25-3.43,2.51-5.16,3.74c-0.27,0.19-0.32,0.34-0.21,0.65c0.85,2.57,1.68,5.15,2.51,7.73
		c0.02,0.07,0.04,0.15,0.09,0.34c-0.25-0.17-0.4-0.28-0.56-0.39c-2.1-1.52-4.2-3.04-6.29-4.58c-0.27-0.2-0.45-0.21-0.72-0.01
		c-2.14,1.57-4.29,3.13-6.44,4.69C114.63,82.73,114.51,82.81,114.3,82.95z"/>
	<path class="st2" d="M144.09,82.86c0.31-0.97,0.61-1.92,0.92-2.86c0.56-1.72,1.11-3.44,1.68-5.15c0.1-0.31,0.04-0.46-0.22-0.65
		c-2.26-1.62-4.5-3.26-6.77-4.92c0.17-0.12,0.34-0.08,0.5-0.08c2.63,0,5.26-0.01,7.89,0c0.34,0,0.47-0.1,0.58-0.43
		c0.82-2.57,1.66-5.12,2.5-7.68c0.03-0.1,0.07-0.2,0.14-0.37c0.53,1.62,1.04,3.17,1.54,4.71c0.36,1.11,0.74,2.22,1.07,3.34
		c0.11,0.36,0.28,0.44,0.63,0.44c2.57-0.02,5.13-0.01,7.7-0.01c0.2,0,0.4,0,0.75,0c-0.38,0.29-0.65,0.5-0.93,0.7
		c-1.98,1.44-3.97,2.88-5.96,4.31c-0.25,0.18-0.31,0.34-0.21,0.65c0.86,2.6,1.7,5.21,2.55,7.82c0.02,0.06,0.03,0.12,0.07,0.28
		c-0.87-0.62-1.66-1.2-2.46-1.77c-1.45-1.05-2.91-2.1-4.35-3.18c-0.3-0.23-0.49-0.24-0.8-0.01c-2.11,1.56-4.24,3.1-6.36,4.64
		C144.42,82.71,144.31,82.83,144.09,82.86z"/>
	<path class="st2" d="M53.24,82.96c0.68-2.09,1.31-4.05,1.95-6.02c0.23-0.7,0.44-1.4,0.69-2.08c0.12-0.31,0.03-0.47-0.22-0.65
		c-2.2-1.59-4.4-3.19-6.6-4.79c-0.06-0.04-0.11-0.09-0.27-0.22c0.55,0,0.98,0,1.41,0c2.36,0,4.73-0.01,7.09,0.01
		c0.33,0,0.46-0.11,0.55-0.41c0.79-2.46,1.59-4.92,2.39-7.38c0.07-0.21,0.14-0.41,0.24-0.72c0.28,0.85,0.53,1.61,0.78,2.37
		c0.62,1.91,1.25,3.82,1.86,5.73c0.1,0.31,0.23,0.4,0.55,0.4c2.6-0.01,5.2-0.01,7.8-0.01c0.18,0,0.37,0,0.59,0.09
		c-0.55,0.41-1.1,0.83-1.66,1.23c-1.71,1.24-3.41,2.48-5.13,3.7c-0.24,0.17-0.29,0.32-0.2,0.62c0.85,2.57,1.68,5.15,2.51,7.73
		c0.03,0.09,0.09,0.17,0.01,0.31c-0.7-0.5-1.39-1-2.08-1.5c-1.57-1.14-3.14-2.27-4.69-3.43c-0.28-0.21-0.46-0.18-0.72,0.02
		c-2.13,1.56-4.26,3.11-6.4,4.67C53.58,82.73,53.45,82.81,53.24,82.96z"/>
	<path class="st2" d="M83.81,82.84c-0.01,0.02-0.03,0.04-0.04,0.06c-0.01-0.02-0.01-0.04-0.02-0.05
		C83.78,82.85,83.8,82.85,83.81,82.84C83.82,82.85,83.81,82.84,83.81,82.84z"/>
	<path class="st2" d="M98.08,82.85c0.02,0,0.04,0,0.06,0c0,0.02-0.01,0.04-0.01,0.05c-0.01-0.02-0.03-0.04-0.04-0.06
		C98.09,82.84,98.08,82.85,98.08,82.85z"/>
</g>
</svg>
