<?xml version="1.0" encoding="utf-8"?>
<!-- Generator: Adobe Illustrator 24.0.2, SVG Export Plug-In . SVG Version: 6.00 Build 0)  -->
<svg version="1.1" id="Layer_1" xmlns="http://www.w3.org/2000/svg" xmlns:xlink="http://www.w3.org/1999/xlink" x="0px" y="0px"
	 viewBox="0 0 180 155.79" style="enable-background:new 0 0 180 155.79;" xml:space="preserve">
<style type="text/css">
	.st0{fill:#ED2325;}
	.st1{fill:#3B54A5;}
	.st2{fill:#FFFFFF;}
</style>
<g>
	<path class="st0" d="M79.53,67.2c26.05,0,52.1,0.01,78.15-0.03c0.93,0,1.07,0.26,1.07,1.1c-0.02,21.96-0.03,43.93,0,65.89
		c0,2,0.29,3.99,1.44,5.74c0.65,0.99,1.64,1.49,2.72,1.24c1.04-0.24,1.51-0.91,1.64-2.23c0.29-2.74,0.15-5.48,0.17-8.23
		c0-0.59,0.12-0.79,0.76-0.79c4.55-0.01,9.11-0.07,13.66-0.1c0.41,0,0.86-0.16,0.85,0.59c-0.08,4.89-0.74,9.67-2.76,14.16
		c-1.45,3.24-3.46,6.16-6.39,8.22c-2.43,1.71-5.22,2.57-8.21,2.9c-3.6,0.39-6.9-0.25-10.02-2.05c-1.72-1-2.94-2.51-4.16-4.02
		c-3.51-4.32-5.17-9.41-6.22-14.78c-0.8-4.1-0.57-8.27-0.81-12.4c-0.3-4.94-0.52-9.89-0.78-14.83c-0.06-1.14-0.47-2.11-1.19-3
		c-1.46-1.8-3.47-1.39-4.58,0.46c-0.49,0.81-0.67,1.77-0.67,2.78c0.03,15.13,0.02,30.27,0.05,45.4c0,0.88-0.2,1.1-1.09,1.09
		c-13.03-0.05-26.05-0.07-39.08-0.06c-0.87,0-1.02-0.26-1.03-1.07c-0.05-11.85-0.14-23.7-0.18-35.56c0-0.92-0.24-1.14-1.15-1.14
		c-17.01,0.03-34.02,0.03-51.03,0c-0.91,0-1.15,0.22-1.15,1.14c0.03,11.82,0.01,23.64,0.05,35.46c0,0.94-0.26,1.14-1.16,1.14
		c-12.46-0.03-24.91-0.03-37.37,0c-0.8,0-1.06-0.16-1.06-1.02c0.12-28.22,0.21-56.45,0.27-84.67c0-0.88,0.2-1.1,1.1-1.1
		c26.05,0.03,52.1,0.02,78.15,0.02C79.53,67.37,79.53,67.29,79.53,67.2z"/>
	<path class="st1" d="M79.27,61.13c-26.02,0-52.03,0-78.05,0.02c-0.93,0-1.28-0.17-1.21-1.18c0.27-4.04,0.12-8.1,0.4-12.14
		c0.42-6.08,1.3-12.08,3.46-17.79c1.73-4.58,4.28-8.65,7.67-12.3c3.8-4.1,8.32-6.9,13.36-9.11c3.99-1.75,8.23-2.66,12.31-4.05
		c5.37-1.83,10.98-2.38,16.54-3.26c8.63-1.36,17.34-1.2,26.03-1.31c4.67-0.06,9.36,0.28,14.03,0.66c4.2,0.34,8.38,0.81,12.55,1.32
		c10.25,1.25,20.34,3.21,29.85,7.41c3.19,1.41,6.15,3.12,8.56,5.78c2.12,2.34,4.15,4.74,5.79,7.42c1.35,2.21,2.1,4.74,3.14,7.12
		c1.59,3.65,2.72,7.44,3.61,11.3c0.56,2.44,0.77,4.95,0.95,7.44c0.27,3.87,0.49,7.75,0.53,11.63c0.01,0.95-0.33,1.07-1.16,1.06
		C131.51,61.13,105.39,61.13,79.27,61.13z M90.54,18.34c-3.41,2.29-6.82,4.57-10.23,6.87c-1.72,1.16-1.71,1.17-3.35-0.02
		c-3.18-2.3-6.36-4.6-9.63-6.96c0.04,0.21,0.05,0.31,0.08,0.4c1.36,3.93,2.71,7.86,4.1,11.78c0.22,0.64,0.22,1.04-0.41,1.49
		c-1.59,1.16-3.11,2.43-4.65,3.65c-1.97,1.57-3.94,3.13-5.99,4.77c4.33,0,8.51,0.02,12.69-0.02c0.74-0.01,1.13,0.14,1.38,0.91
		c0.83,2.49,1.74,4.96,2.63,7.43c0.59,1.65,1.2,3.29,1.86,5.11c1.5-4.29,2.94-8.37,4.33-12.46c0.23-0.67,0.51-0.94,1.25-0.95
		c4.05-0.04,8.1-0.13,12.15-0.22c0.27-0.01,0.59,0.13,0.86-0.15c-0.22-0.18-0.43-0.35-0.64-0.5c-3.34-2.51-6.68-5.02-10.04-7.5
		c-0.5-0.37-0.69-0.66-0.42-1.3c0.41-0.94,0.7-1.94,1.03-2.92c1.05-3.09,2.09-6.18,3.13-9.26c0.03-0.07,0.06-0.14,0.09-0.21
		C90.69,18.29,90.62,18.32,90.54,18.34z M22.19,17.82c0.16,0.53,0.22,0.75,0.29,0.97c1.28,3.89,2.56,7.78,3.85,11.66
		c0.16,0.49,0.18,0.79-0.31,1.16c-2.2,1.64-4.34,3.35-6.51,5.03c-1.57,1.22-3.13,2.44-4.9,3.82c0.58,0,0.9,0,1.21,0
		c4.12-0.04,8.24-0.07,12.35-0.15c0.73-0.01,1.03,0.21,1.25,0.9c0.58,1.84,1.27,3.64,1.92,5.46c0.89,2.49,1.77,4.97,2.71,7.62
		c0.14-0.39,0.23-0.61,0.3-0.83c1.35-4.11,2.71-8.22,4.02-12.34c0.22-0.68,0.53-0.93,1.26-0.93c4.29,0,8.57-0.04,12.86-0.08
		c0.26,0,0.58,0.16,0.82-0.16c-3.77-2.81-7.51-5.62-11.28-8.39c-0.52-0.38-0.64-0.68-0.43-1.3c1.3-3.85,2.55-7.71,3.8-11.57
		c0.1-0.31,0.37-0.63,0.13-1.05c-3.74,2.67-7.47,5.32-11.18,8.01c-0.45,0.32-0.71,0.4-1.18,0.03c-1.05-0.83-2.17-1.57-3.25-2.34
		C27.42,21.55,24.92,19.77,22.19,17.82z M136.95,18.16c-0.45,0.29-0.73,0.46-0.99,0.64c-3.51,2.37-7.04,4.73-10.53,7.13
		c-0.57,0.39-0.94,0.38-1.48-0.03c-1.79-1.35-3.61-2.65-5.42-3.96c-1.63-1.18-3.27-2.35-5.09-3.66c0.11,0.43,0.15,0.62,0.22,0.8
		c1.29,3.74,2.55,7.5,3.89,11.22c0.29,0.8,0.17,1.25-0.49,1.76c-3.35,2.6-6.68,5.24-10,7.88c-0.15,0.12-0.47,0.18-0.39,0.38
		c4.21,0,8.36,0.02,12.51-0.02c0.78-0.01,1.16,0.17,1.43,0.97c1.44,4.14,2.96,8.25,4.48,12.45c0.12-0.25,0.21-0.43,0.28-0.61
		c1.35-3.9,2.72-7.79,4.03-11.71c0.24-0.72,0.57-0.98,1.32-0.98c2.21,0,4.42-0.06,6.62-0.13c2.09-0.06,4.17-0.15,6.43-0.23
		c-0.4-0.32-0.65-0.52-0.91-0.71c-3.29-2.47-6.57-4.94-9.88-7.38c-0.47-0.35-0.63-0.6-0.41-1.22c0.9-2.43,1.72-4.9,2.57-7.35
		C135.73,21.73,136.31,20.03,136.95,18.16z"/>
	<path class="st2" d="M22.19,17.82c2.73,1.95,5.23,3.73,7.73,5.51c1.09,0.78,2.2,1.52,3.25,2.34c0.47,0.37,0.74,0.3,1.18-0.03
		c3.71-2.68,7.44-5.33,11.18-8.01c0.23,0.42-0.03,0.74-0.13,1.05c-1.25,3.86-2.5,7.73-3.8,11.57c-0.21,0.62-0.09,0.92,0.43,1.3
		c3.77,2.77,7.51,5.58,11.28,8.39c-0.23,0.32-0.56,0.15-0.82,0.16c-4.29,0.04-8.57,0.08-12.86,0.08c-0.72,0-1.04,0.25-1.26,0.93
		c-1.31,4.12-2.67,8.23-4.02,12.34c-0.07,0.22-0.16,0.44-0.3,0.83c-0.94-2.64-1.83-5.13-2.71-7.62c-0.65-1.82-1.34-3.62-1.92-5.46
		c-0.22-0.7-0.53-0.92-1.25-0.9c-4.12,0.08-8.24,0.11-12.35,0.15c-0.32,0-0.64,0-1.21,0c1.76-1.38,3.33-2.6,4.9-3.82
		c2.16-1.68,4.31-3.39,6.51-5.03c0.49-0.37,0.48-0.66,0.31-1.16c-1.3-3.88-2.57-7.77-3.85-11.66
		C22.41,18.58,22.35,18.36,22.19,17.82z"/>
	<path class="st2" d="M136.95,18.16c-0.64,1.87-1.22,3.56-1.81,5.25c-0.85,2.45-1.67,4.92-2.57,7.35c-0.23,0.61-0.06,0.87,0.41,1.22
		c3.3,2.44,6.59,4.92,9.88,7.38c0.26,0.19,0.51,0.4,0.91,0.71c-2.26,0.08-4.35,0.17-6.43,0.23c-2.21,0.06-4.42,0.13-6.62,0.13
		c-0.76,0-1.08,0.25-1.32,0.98c-1.31,3.91-2.68,7.81-4.03,11.71c-0.06,0.19-0.16,0.36-0.28,0.61c-1.52-4.2-3.04-8.31-4.48-12.45
		c-0.28-0.8-0.65-0.98-1.43-0.97c-4.15,0.04-8.3,0.02-12.51,0.02c-0.09-0.2,0.23-0.26,0.39-0.38c3.33-2.64,6.65-5.28,10-7.88
		c0.66-0.51,0.78-0.96,0.49-1.76c-1.34-3.72-2.6-7.48-3.89-11.22c-0.06-0.18-0.1-0.38-0.22-0.8c1.82,1.31,3.46,2.48,5.09,3.66
		c1.81,1.31,3.64,2.61,5.42,3.96c0.54,0.41,0.92,0.42,1.48,0.03c3.49-2.4,7.02-4.76,10.53-7.13
		C136.22,18.62,136.5,18.45,136.95,18.16z"/>
	<path class="st2" d="M90.67,18.47c-1.04,3.09-2.08,6.18-3.13,9.26c-0.33,0.98-0.62,1.98-1.03,2.92c-0.28,0.63-0.09,0.92,0.42,1.3
		c3.36,2.48,6.7,5,10.04,7.5c0.21,0.16,0.41,0.33,0.64,0.5c-0.28,0.28-0.59,0.14-0.86,0.15c-4.05,0.09-8.1,0.18-12.15,0.22
		c-0.74,0.01-1.02,0.28-1.25,0.95c-1.39,4.09-2.83,8.17-4.33,12.46c-0.66-1.81-1.27-3.46-1.86-5.11c-0.89-2.47-1.8-4.94-2.63-7.43
		c-0.25-0.76-0.65-0.91-1.38-0.91c-4.18,0.04-8.36,0.02-12.69,0.02c2.05-1.63,4.02-3.2,5.99-4.77c1.54-1.23,3.06-2.5,4.65-3.65
		c0.63-0.46,0.63-0.86,0.41-1.49c-1.38-3.92-2.74-7.85-4.1-11.78c-0.03-0.09-0.04-0.18-0.08-0.4c3.27,2.36,6.45,4.66,9.63,6.96
		c1.64,1.19,1.63,1.18,3.35,0.02c3.4-2.3,6.82-4.58,10.23-6.87C90.59,18.39,90.63,18.43,90.67,18.47z"/>
	<path class="st2" d="M90.54,18.34c0.07-0.03,0.14-0.06,0.22-0.08c-0.03,0.07-0.06,0.14-0.09,0.21
		C90.63,18.43,90.59,18.39,90.54,18.34z"/>
</g>
</svg>
