<?xml version="1.0" encoding="utf-8"?>
<!-- Generator: Adobe Illustrator 24.0.2, SVG Export Plug-In . SVG Version: 6.00 Build 0)  -->
<svg version="1.1" id="Layer_1" xmlns="http://www.w3.org/2000/svg" xmlns:xlink="http://www.w3.org/1999/xlink" x="0px" y="0px"
	 viewBox="0 0 199.41 74.75" style="enable-background:new 0 0 199.41 74.75;" xml:space="preserve">
<style type="text/css">
	.st0{fill:#FFFFFF;}
	.st1{fill:url(#SVGID_1_);}
</style>
<g>
	<g>
		<g>
			<path d="M59.4,43.7c-0.03-0.12-0.07-0.24-0.12-0.35c-0.76-1.95-2.32-3.12-4.16-3.12c-0.14,0-14.21-0.1-14.22-0.1
				c-1.37,0-2.64,0.61-3.49,1.66c-0.33,0.41-0.57,0.86-0.71,1.36l-7.77,26.21c-0.37,1.25-0.11,2.61,0.71,3.63l0.13,0.17
				c0.75,0.95,1.88,1.5,3.08,1.51l6.07,0.07l1.08,0c3.33,0,4.27-0.12,5.27-0.68c0.86-0.48,1.52-1.26,1.84-2.19
				c0.07-0.21,0.17-0.52,0.34-1.17c0.09,0,0.18,0,0.27,0c0.03,0.16,0.07,0.32,0.1,0.48c0.04,0.19,0.1,0.38,0.16,0.57
				c0.61,1.63,2.09,2.76,3.75,2.88c0.22,0.02,0.45,0.03,3.04,0.06c1.77,0.02,3.21,0.03,4.3,0.03c0.01,0,0.01,0,0.02,0
				c0.56,0.01,1.07,0.01,1.52,0.01c0.98,0,1.71-0.02,2.25-0.05c0.26-0.02,0.53-0.06,0.79-0.13c1.19-0.32,2.15-1.06,2.72-2.07
				c0.55-0.97,0.68-2.14,0.39-3.16C66.59,68.71,64.12,60.08,59.4,43.7z"/>
		</g>
		<g>
			<path d="M198.78,61.25l-0.03-7.47c0-0.22-0.02-0.44-0.05-0.65c0.46-0.67,0.72-1.47,0.72-2.31l-0.03-6.71
				c-0.01-2.19-1.81-3.98-4-3.98c0,0-21.17,0.03-21.17,0.03c-2.2,0-3.99,1.8-3.99,4v1.31c-3.08-3.51-7.73-5.34-13.64-5.34
				c-5.51,0-9.84,1.65-12.94,4.88v-0.88c0-1.06-0.43-2.09-1.18-2.83c-0.75-0.75-1.76-1.17-2.82-1.17c0,0-25.65,0.07-25.66,0.07
				c-1.07,0-2.07,0.42-2.83,1.18c-0.75,0.76-1.17,1.77-1.16,2.84l0.03,7.01c0.01,2.16,1.78,3.95,3.94,3.98l2.86,0.04L116.8,70.7
				c0,1.06,0.43,2.09,1.18,2.84c0.75,0.75,1.76,1.17,2.82,1.17c0,0,12.11-0.07,12.11-0.07c2.19-0.01,3.97-1.8,3.98-3.99l0.03-15.67
				l2.27-0.03c-0.08,0.73-0.13,1.47-0.13,2.24c0,3.22,0.71,6.18,2.12,8.83c1.51,2.76,3.61,4.91,6.25,6.4c2.79,1.54,6,2.32,9.55,2.32
				c0.44,0,0.89-0.01,1.33-0.04c0.16-0.01,0.33-0.03,0.48-0.05c1.26-0.22,2.17-0.4,2.75-0.54c1.21-0.28,2.29-0.64,3.23-1.08
				c2.1-1,3.93-2.42,5.45-4.24v1.88c0,2.2,1.79,4,3.99,4c0,0,21.1,0.03,21.1,0.03c1.07,0,2.07-0.42,2.83-1.17
				c0.76-0.76,1.17-1.76,1.17-2.83V63.5c0-0.71-0.19-1.4-0.54-2C198.78,61.41,198.78,61.33,198.78,61.25z"/>
		</g>
		<g>
			<path d="M114.68,30.81V15.3c0.13,0.02,0.26,0.04,0.39,0.05l2.86,0.04l-0.03,15.45c0,1.06,0.43,2.1,1.18,2.84
				c0.75,0.75,1.76,1.17,2.82,1.17c0,0,12.11-0.07,12.11-0.07c2.19-0.01,3.97-1.8,3.98-3.99l0.03-15.67l2.78-0.04
				c0.01,0,0.01,0,0.02,0l0.04,15.78c0,1.07,0.42,2.07,1.18,2.83c0.75,0.75,1.76,1.16,2.82,1.16c0,0,10.87-0.03,10.87-0.03
				c2.2-0.01,3.99-1.8,3.99-4v-2.54c0.82,1.12,1.77,2.15,2.91,3.05c0.18,0.14,0.37,0.27,0.57,0.38l3.69,2.03
				c0.25,0.14,0.51,0.25,0.78,0.33c1.85,0.55,4.05,0.83,6.56,0.83c5.45,0,9.68-1.52,12.58-4.55c1.23-1.34,2.14-3.3,2.8-5.99
				c0.48-1.93,0.72-3.58,0.72-5.06c0-0.82-0.14-1.49-0.37-2.04c0.06-0.1,0.11-0.2,0.16-0.3c0.31-0.62,0.46-1.31,0.43-2.01
				c-0.08-1.61-0.22-2.87-0.44-3.84c-0.43-2.36-1.6-4.53-3.49-6.44c-1.82-1.83-3.87-3.09-6.07-3.73l-1.62-0.5
				c-0.22-0.07-0.45-0.12-0.67-0.15c-1.55-0.2-3.02-0.3-4.39-0.3c-2.47,0-4.66,0.33-6.51,0.99c-3,1.06-5.5,3.03-7.42,5.84
				c-0.07,0.1-0.13,0.21-0.2,0.32V4.33c0-2.19-1.78-3.99-3.98-4c0,0-10.95-0.07-10.95-0.07c-0.73,0-1.42,0.21-2.03,0.57
				c-0.61-0.36-1.3-0.57-2.03-0.57c0,0-25.65,0.07-25.66,0.07c-0.8,0-1.56,0.24-2.21,0.67c-0.63-0.42-1.37-0.67-2.18-0.67
				c0,0-10.95-0.07-10.95-0.07c-1.07,0-2.07,0.41-2.82,1.17c-0.75,0.75-1.18,1.78-1.18,2.84l0.04,15.89l-5.87-0.02L89.87,4.28
				c-0.01-2.19-1.8-3.98-3.99-3.99c0,0-11.4-0.03-11.41-0.03c-1.07,0-2.08,0.42-2.83,1.17c-0.75,0.75-1.17,1.79-1.17,2.85l0,0.93
				c-3.08-3.25-7.6-4.95-13.28-4.95c-5.97,0-10.58,1.92-13.71,5.7c-0.23,0.28-0.45,0.56-0.66,0.85c-0.01-0.03-0.03-0.06-0.04-0.09
				c-0.77-1.58-1.88-2.94-3.29-4.06C38,1.49,36.31,0.75,34.4,0.49C32.58,0.29,29.12,0.2,23.81,0.2c-2.5,0-5.28,0.02-8.36,0.07
				c-2.17,0.03-3.94,1.82-3.94,3.99L11.44,30.8c-0.01,2.2,1.78,4,3.99,4.01c0,0,10.77,0.03,10.78,0.03c1.06,0,2.09-0.43,2.84-1.18
				c0.75-0.75,1.17-1.79,1.16-2.86c-0.02-1.75-0.02-3.11-0.02-4.17c1.75-0.03,3.22-0.21,4.47-0.57c0.84-0.13,1.68-0.42,2.45-0.86
				c0.44-0.23,0.89-0.48,1.36-0.73c0.2-0.11,0.4-0.24,0.57-0.38c0.51-0.41,0.97-0.83,1.4-1.27c0.34,1.16,0.79,2.27,1.35,3.32
				c1.51,2.76,3.61,4.91,6.25,6.4c2.79,1.54,6,2.33,9.55,2.33c0.44,0,0.89-0.01,1.33-0.04c0.16-0.01,0.32-0.03,0.48-0.05
				c1.26-0.22,2.17-0.4,2.75-0.54c1.22-0.28,2.3-0.64,3.23-1.08c1.99-0.94,3.74-2.27,5.21-3.96l0.01,1.59
				c0.01,2.19,1.8,3.97,3.99,3.98c0,0,21.24,0.07,21.24,0.07c0.73,0,1.41-0.19,2-0.53c0.6,0.34,1.28,0.53,1.99,0.53
				c0,0,10.87-0.03,10.87-0.03C112.89,34.8,114.68,33.01,114.68,30.81z"/>
		</g>
		<g>
			<path d="M98.25,54.81c-0.08-1.61-0.22-2.87-0.44-3.84c-0.43-2.36-1.6-4.53-3.49-6.44c-1.82-1.83-3.87-3.09-6.07-3.73l-1.62-0.5
				c-0.22-0.07-0.45-0.12-0.67-0.15c-1.55-0.2-3.03-0.3-4.39-0.3c-2.47,0-4.66,0.33-6.52,0.99c-3,1.06-5.5,3.02-7.42,5.84
				c-2.2,3.23-3.32,6.92-3.32,10.95c0,5.8,2.03,10.35,6.03,13.53c0.18,0.14,0.37,0.27,0.56,0.37l3.68,2.02
				c0.25,0.14,0.52,0.25,0.79,0.33c1.85,0.55,4.06,0.83,6.56,0.83c5.45,0,9.68-1.52,12.58-4.55c1.23-1.34,2.15-3.3,2.8-5.99
				c0.48-1.93,0.72-3.58,0.72-5.05c0-0.82-0.14-1.49-0.37-2.04c0.06-0.11,0.12-0.21,0.17-0.31C98.14,56.18,98.29,55.5,98.25,54.81z"
				/>
		</g>
		<g>
			<path d="M33.65,50.94v-6.81c0-1.06-0.43-2.09-1.17-2.83c-0.76-0.75-1.76-1.17-2.83-1.17c0,0-25.66,0.07-25.66,0.07
				c-1.07,0-2.07,0.42-2.83,1.18C0.41,42.14,0,43.14,0,44.21l0.03,7.01c0.01,2.16,1.78,3.95,3.94,3.98l2.86,0.04L6.81,70.7
				c0,1.06,0.43,2.09,1.18,2.84c0.76,0.75,1.76,1.17,2.82,1.17c0,0,12.11-0.07,12.11-0.07c2.19-0.01,3.97-1.8,3.98-3.99l0.03-15.67
				l2.78-0.04C31.88,54.91,33.65,53.11,33.65,50.94z"/>
		</g>
	</g>
	<g>
		<path class="st0" d="M163.89,29.75c0.09,0.07,0.18,0.13,0.28,0.19l3.69,2.03c0.12,0.07,0.25,0.12,0.39,0.16
			c1.66,0.5,3.68,0.75,5.99,0.75c4.89,0,8.61-1.3,11.11-3.9c0.99-1.08,1.76-2.76,2.33-5.12c0.44-1.77,0.66-3.26,0.66-4.57
			c0-0.46,0-1.65-1.1-2.25c0.57-0.18,0.85-0.48,1.11-0.99c0.16-0.31,0.23-0.66,0.22-1c-0.07-1.52-0.2-2.68-0.4-3.53
			c-0.35-1.97-1.34-3.8-2.95-5.43c-1.58-1.59-3.35-2.68-5.24-3.23l-1.63-0.5c-0.11-0.03-0.22-0.06-0.33-0.07
			C176.54,2.09,175.15,2,173.87,2c-2.24,0-4.21,0.3-5.85,0.88c-2.59,0.92-4.76,2.63-6.44,5.08c-1.97,2.9-2.97,6.2-2.97,9.83
			C158.61,22.94,160.39,26.97,163.89,29.75z M173.94,17.31c0.12-1.96,0.19-2.41,0.2-2.45c0.08-0.39,0.2-0.7,0.37-0.94
			c0.01,0.03,0.03,0.06,0.04,0.1c0.01,0.03,0.1,0.37,0.26,1.75c0.05,0.42,0.24,0.82,0.53,1.13c0.13,0.14,0.25,0.24,0.39,0.33
			c-0.58,0.59-0.74,1.61-0.9,2.65c-0.22,1.29-0.34,1.85-0.39,2.05c-0.37-0.76-0.55-1.81-0.55-3.14
			C173.87,18.36,173.9,17.88,173.94,17.31z M166.38,15.17c0.08-0.04,0.17-0.08,0.25-0.12c0.02,0.03,0.27,0.32,0.27,0.32
			c-0.08,0.12-0.15,0.24-0.2,0.37c-0.07-0.02-0.14-0.03-0.22-0.04l-0.1-0.01C166.41,15.51,166.41,15.34,166.38,15.17z"/>
	</g>
	<g>
		<path class="st0" d="M143.46,32.26c0.38,0.37,0.88,0.58,1.41,0.58c0,0,10.87-0.03,10.87-0.03c1.1,0,1.99-0.9,1.99-2V4.33
			c0-1.1-0.89-1.99-1.99-2c0,0-10.94-0.07-10.94-0.07c-0.53,0-1.04,0.21-1.41,0.58c-0.38,0.38-0.59,0.89-0.59,1.42l0.07,26.58
			C142.87,31.38,143.08,31.89,143.46,32.26z M150.31,10.01c0.14,0.13,0.31,0.25,0.49,0.33c-0.03,0.08-0.06,0.17-0.08,0.26
			l-0.05,0.23c-0.02,0-0.04,0-0.06,0c-0.14,0-0.28,0.01-0.42,0.04c-0.02-0.13-0.06-0.26-0.1-0.38l-0.08-0.21
			C150.12,10.21,150.22,10.12,150.31,10.01z"/>
	</g>
	<g>
		<path class="st0" d="M57.48,44.24c-0.02-0.06-0.04-0.12-0.06-0.17c-0.62-1.6-1.71-1.84-2.3-1.84c-0.02,0-14.21-0.1-14.21-0.1
			c-0.76,0-1.46,0.33-1.93,0.92c-0.16,0.2-0.28,0.43-0.36,0.68l-7.77,26.21c-0.19,0.63-0.05,1.3,0.35,1.81l0.13,0.17
			c0.37,0.47,0.94,0.75,1.54,0.75l6.05,0.07l1.07,0c3.2,0,3.77-0.13,4.3-0.42c0.43-0.24,0.76-0.63,0.92-1.09
			c0.09-0.27,0.26-0.81,0.68-2.53c0.13,0,0.26,0,0.38,0c0.95,0,1.97,0.02,3.04,0.07c0.14,0.56,0.29,1.23,0.46,2.02
			c0.02,0.1,0.05,0.19,0.08,0.28c0.34,0.91,1.13,1.52,2.04,1.58c0.16,0.01,0.46,0.02,2.9,0.06c1.77,0.02,3.21,0.03,4.29,0.03
			c0.01,0,0.02,0,0.03,0c0.55,0.01,1.05,0.01,1.5,0.01c0.93,0,1.63-0.02,2.12-0.05c0.13-0.01,0.27-0.03,0.39-0.07
			c0.85-0.23,1.29-0.74,1.5-1.12c0.29-0.52,0.36-1.12,0.2-1.66C64.67,69.25,62.19,60.63,57.48,44.24z M53.78,62.65
			c-0.17-0.2-0.39-0.37-0.63-0.48c0.22-0.24,0.39-0.54,0.47-0.86c0.21,0.07,0.43,0.11,0.65,0.11c0.06,0,0.13,0,0.19-0.01
			c0,0.25,0.05,0.51,0.15,0.75l0.07,0.18C54.35,62.37,54.04,62.47,53.78,62.65z"/>
	</g>
	<g>
		<path class="st0" d="M141.64,50.94v-6.81c0-0.53-0.21-1.04-0.59-1.42c-0.38-0.37-0.88-0.58-1.41-0.58c0,0-25.65,0.07-25.65,0.07
			c-0.53,0-1.04,0.21-1.41,0.59c-0.38,0.38-0.58,0.89-0.58,1.42l0.03,7.01c0,1.09,0.88,1.97,1.97,1.99l4.84,0.07L118.8,70.7
			c0,0.53,0.21,1.04,0.59,1.42c0.38,0.37,0.88,0.58,1.41,0.58c0,0,12.1-0.07,12.1-0.07c1.1-0.01,1.99-0.9,1.99-2l0.03-17.63
			l4.74-0.07C140.76,52.92,141.64,52.03,141.64,50.94z M125.61,50.25c-0.02,0.08-0.03,0.17-0.03,0.25c-0.03,0-0.06,0-0.1,0
			c-0.21,0-0.41,0.03-0.61,0.09c-0.03-0.05-0.06-0.1-0.1-0.14l-0.19-0.25c0.03-0.02,0.41-0.37,0.41-0.37
			c0.06-0.05,0.11-0.1,0.16-0.16c0.06,0.03,0.11,0.05,0.17,0.08l0.35,0.13C125.68,49.88,125.61,50.25,125.61,50.25z"/>
	</g>
	<g>
		<path class="st0" d="M196.78,61.26l-0.03-7.47c0-0.44-0.15-0.85-0.39-1.18c0.63-0.34,1.06-1.01,1.06-1.78l-0.03-6.71
			c-0.01-1.1-0.9-1.99-2-1.99c0,0-21.16,0.03-21.16,0.03c-1.1,0-2,0.9-2,2v10.35c-0.28-1.76-0.89-3.53-1.82-5.29
			c-2.54-4.71-7.19-7.1-13.82-7.1c-5.34,0-9.44,1.67-12.17,4.98c-2.22,2.68-3.35,6.07-3.35,10.08c0,2.89,0.63,5.53,1.87,7.87
			c1.33,2.43,3.17,4.31,5.47,5.61c2.49,1.38,5.37,2.07,8.58,2.07c0.41,0,0.82-0.01,1.23-0.03c0.08,0,0.16-0.01,0.24-0.03
			c1.22-0.21,2.09-0.38,2.64-0.52c1.08-0.25,2.02-0.56,2.83-0.94c2.29-1.08,4.21-2.76,5.71-4.97c1.42-2.07,2.29-4.37,2.59-6.83
			v11.25c0,1.1,0.89,2,2,2c0,0,21.1,0.03,21.1,0.03c0.53,0,1.04-0.21,1.41-0.58c0.38-0.38,0.59-0.88,0.59-1.42V63.5
			c0-0.59-0.26-1.13-0.67-1.49C196.73,61.77,196.78,61.52,196.78,61.26z M148.73,58.5c0,0-0.12-0.12-0.12-0.12l0.11-0.11
			c0.07-0.06,0.13-0.13,0.18-0.21c0.08,0.02,0.15,0.04,0.23,0.06c0,0.1,0,0.2,0.01,0.3C149,58.43,148.86,58.46,148.73,58.5z
			 M157.41,60.19l-0.39,1.62c-0.1,0.25-0.21,0.31-0.28,0.32c-0.1,0-0.17-0.01-0.22-0.03c-0.05-0.09-0.1-0.21-0.15-0.37
			c-0.3-0.85-0.48-1.99-0.55-3.41c0.19-3.46,0.38-4.94,0.51-5.57c0.12-0.21,0.22-0.31,0.27-0.36c0.04,0,0.07-0.01,0.11-0.02
			c0.03,0.03,0.08,0.07,0.14,0.13c0.18,0.32,0.49,1.13,0.62,3.02l0,3.46L157.41,60.19z M180.99,57.99
			c-0.08-0.01-0.15-0.01-0.23-0.01c-0.13,0-0.26,0.01-0.39,0.04c-0.05-0.08-0.1-0.16-0.16-0.24l-0.08-0.1
			c0.01-0.01,0.36-0.29,0.36-0.29c0.06-0.05,0.11-0.1,0.17-0.15c0.13,0.08,0.26,0.14,0.41,0.19
			C181.01,57.6,180.98,57.8,180.99,57.99z"/>
	</g>
	<g>
		<path class="st0" d="M112.68,30.81V4.33c0-1.1-0.89-1.99-1.99-2c0,0-10.94-0.07-10.94-0.07c-0.53,0-1.04,0.21-1.41,0.58
			c-0.38,0.38-0.59,0.89-0.59,1.42l0.05,19.1c-0.1-0.22-0.23-0.42-0.4-0.6c-0.37-0.38-0.89-0.6-1.42-0.6l-8.05-0.03L87.87,4.29
			c0-1.1-0.89-1.99-1.99-1.99c0,0-11.4-0.03-11.4-0.03c-0.53,0-1.04,0.21-1.42,0.59c-0.38,0.38-0.59,0.89-0.58,1.42l0.04,8.86
			c-0.33-1.26-0.83-2.52-1.5-3.77c-2.54-4.71-7.19-7.1-13.82-7.1c-5.34,0-9.44,1.67-12.17,4.98c-1.36,1.64-2.3,3.54-2.84,5.68
			c-0.02-1.95-0.42-3.74-1.2-5.32c-0.64-1.31-1.56-2.44-2.73-3.37c-1.22-0.96-2.56-1.55-4.07-1.76C32.44,2.29,29.05,2.2,23.81,2.2
			c-2.49,0-5.27,0.02-8.33,0.07c-1.09,0.02-1.97,0.9-1.97,2L13.44,30.8c0,1.1,0.89,2,1.99,2c0,0,10.77,0.03,10.77,0.03
			c0.53,0,1.04-0.21,1.42-0.59c0.38-0.38,0.59-0.89,0.58-1.43c-0.03-3.15-0.03-5.04-0.01-6.18c0.65-0.01,1.3-0.01,1.96-0.01
			c1.63-0.02,2.97-0.2,4.09-0.53c0.64-0.08,1.3-0.31,1.93-0.67c0.43-0.23,0.87-0.46,1.33-0.71c0.1-0.06,0.2-0.12,0.29-0.19
			c2.12-1.7,3.43-3.71,3.9-5.98c-0.01,0.25-0.01,0.51-0.01,0.76c0,2.89,0.63,5.53,1.87,7.87c1.33,2.43,3.17,4.31,5.47,5.61
			c2.49,1.38,5.37,2.07,8.58,2.07c0.4,0,0.82-0.01,1.23-0.03c0.08,0,0.16-0.01,0.23-0.03c1.21-0.21,2.08-0.38,2.64-0.52
			c1.08-0.25,2.03-0.56,2.83-0.94c2.29-1.08,4.21-2.76,5.71-4.97c1.11-1.62,1.88-3.38,2.31-5.24l0.05,9.64
			c0.01,1.1,0.9,1.99,1.99,1.99c0,0,21.23,0.07,21.24,0.07c1.04,0,1.9-0.8,1.99-1.83c0.04,0.47,0.25,0.91,0.58,1.24
			c0.38,0.37,0.88,0.58,1.41,0.58c0,0,10.87-0.03,10.87-0.03C111.79,32.8,112.68,31.91,112.68,30.81z M22.04,19.51
			c-0.16-0.08-0.34-0.14-0.52-0.17c0.08-0.22,0.11-0.46,0.11-0.69c0.15-0.04,0.29-0.1,0.43-0.17c0.07,0.13,0.15,0.26,0.24,0.38
			l0.14,0.18C22.28,19.17,22.15,19.33,22.04,19.51z M27.88,13.82c-0.01,0.01-0.03,0.01-0.04,0.02c0-0.11,0-1.48,0-1.48
			c0.04,0.02,0.07,0.03,0.09,0.04c0.07,0.19,0.1,0.4,0.1,0.64C28.03,13.33,27.98,13.59,27.88,13.82z M49.35,18.64
			c0,0-0.01-0.23-0.01-0.23c0.07-0.07,0.13-0.13,0.18-0.21c0.08,0.02,0.15,0.04,0.23,0.06c0,0.1,0,0.2,0.01,0.3
			C49.62,18.57,49.48,18.59,49.35,18.64z M58.04,20.33l-0.39,1.62c-0.1,0.25-0.21,0.31-0.28,0.32c-0.1,0-0.17-0.01-0.22-0.03
			c-0.05-0.09-0.1-0.21-0.15-0.37c-0.3-0.84-0.48-1.99-0.55-3.41c0.19-3.46,0.38-4.94,0.51-5.57c0.12-0.21,0.22-0.31,0.27-0.36
			c0.04,0,0.07-0.01,0.11-0.02c0.03,0.03,0.08,0.07,0.14,0.13c0.18,0.32,0.49,1.13,0.62,3.02l0,3.46L58.04,20.33z M80.54,11.23
			c-0.03,0.09-0.06,0.18-0.08,0.27c-0.04,0-0.07,0-0.11,0c-0.12,0-0.24,0.01-0.36,0.03c-0.01-0.2-0.06-0.39-0.13-0.57
			c0.1-0.08,0.19-0.17,0.27-0.27c0.14,0.14,0.3,0.26,0.48,0.36L80.54,11.23z M105.67,10.61l-0.05,0.23c-0.02,0-0.04,0-0.06,0
			c-0.14,0-0.28,0.01-0.42,0.04c-0.02-0.13-0.05-0.25-0.1-0.37l-0.08-0.22c0.11-0.08,0.21-0.17,0.3-0.27
			c0.14,0.13,0.31,0.25,0.49,0.33C105.72,10.43,105.69,10.52,105.67,10.61z"/>
	</g>
	<g>
		<path class="st0" d="M92.9,45.94c-1.58-1.59-3.35-2.68-5.23-3.23l-1.63-0.5c-0.11-0.03-0.22-0.06-0.33-0.07
			c-1.47-0.19-2.86-0.28-4.14-0.28c-2.24,0-4.2,0.3-5.85,0.88c-2.59,0.92-4.76,2.62-6.44,5.08c-1.97,2.9-2.97,6.2-2.97,9.83
			c0,5.16,1.77,9.18,5.27,11.96c0.09,0.07,0.18,0.13,0.28,0.19l3.69,2.03c0.12,0.07,0.25,0.12,0.39,0.16
			c1.66,0.5,3.68,0.75,5.99,0.75c4.89,0,8.61-1.3,11.11-3.9c0.99-1.08,1.76-2.76,2.33-5.12c0.44-1.77,0.66-3.26,0.66-4.57
			c0-0.46,0-1.65-1.1-2.25c0.57-0.19,0.85-0.48,1.12-1c0.16-0.31,0.23-0.65,0.21-1c-0.07-1.52-0.2-2.67-0.4-3.53
			C95.51,49.4,94.52,47.57,92.9,45.94z M74.4,55.6c-0.07-0.02-0.14-0.03-0.21-0.04l-0.1-0.01c0.02-0.17,0.02-0.35,0-0.52
			c0.08-0.04,0.17-0.08,0.25-0.12c0.02,0.03,0.27,0.32,0.27,0.32C74.52,55.34,74.45,55.47,74.4,55.6z M82.52,59.74
			c-0.22,1.29-0.34,1.85-0.39,2.05c-0.37-0.76-0.55-1.81-0.55-3.14c0-0.42,0.02-0.9,0.06-1.48c0.12-1.96,0.19-2.41,0.2-2.45
			c0.08-0.39,0.2-0.7,0.37-0.94c0.01,0.03,0.03,0.06,0.04,0.1c0.01,0.03,0.09,0.37,0.26,1.75c0.05,0.42,0.23,0.82,0.53,1.13
			c0.13,0.14,0.26,0.24,0.39,0.33C82.84,57.67,82.68,58.69,82.52,59.74z"/>
	</g>
	<g>
		<path class="st0" d="M115.11,13.34l4.84,0.07l-0.03,17.43c0,0.53,0.21,1.04,0.59,1.42c0.38,0.37,0.88,0.58,1.41,0.58
			c0,0,12.1-0.07,12.1-0.07c1.1-0.01,1.99-0.9,1.99-2l0.03-17.63l4.74-0.07c1.09-0.02,1.97-0.91,1.97-2V4.26
			c0-0.53-0.21-1.04-0.59-1.42c-0.38-0.37-0.88-0.58-1.41-0.58c0,0-25.65,0.07-25.65,0.07c-0.53,0-1.04,0.21-1.41,0.59
			c-0.38,0.38-0.58,0.89-0.58,1.42l0.03,7.01C113.14,12.44,114.02,13.32,115.11,13.34z M126.11,9.97c0.06-0.05,0.11-0.1,0.16-0.16
			c0.06,0.03,0.11,0.05,0.17,0.08l0.35,0.13c0,0-0.07,0.37-0.07,0.37c-0.02,0.08-0.03,0.17-0.03,0.25c-0.03,0-0.06,0-0.1,0
			c-0.21,0-0.41,0.03-0.61,0.09c-0.03-0.05-0.06-0.1-0.1-0.14l-0.19-0.25C125.72,10.31,126.11,9.97,126.11,9.97z"/>
	</g>
	<g>
		<path class="st0" d="M31.65,50.94v-6.81c0-0.53-0.21-1.04-0.59-1.42c-0.38-0.37-0.88-0.58-1.41-0.58c0,0-25.65,0.07-25.65,0.07
			c-0.53,0-1.04,0.21-1.41,0.59C2.21,43.16,2,43.67,2,44.2l0.03,7.01c0,1.09,0.88,1.97,1.97,1.99l4.84,0.07L8.81,70.7
			c0,0.53,0.21,1.04,0.59,1.42c0.38,0.37,0.88,0.58,1.41,0.58c0,0,12.1-0.07,12.1-0.07c1.1-0.01,1.99-0.9,1.99-2l0.03-17.63
			l4.74-0.07C30.77,52.92,31.65,52.03,31.65,50.94z M15.62,50.25c-0.02,0.08-0.02,0.17-0.03,0.25c-0.03,0-0.06,0-0.1,0
			c-0.21,0-0.41,0.03-0.61,0.09c-0.03-0.05-0.06-0.1-0.1-0.14l-0.19-0.25c0.03-0.02,0.41-0.37,0.41-0.37
			c0.06-0.05,0.11-0.1,0.16-0.16c0.06,0.03,0.11,0.05,0.17,0.08l0.35,0.13C15.68,49.88,15.62,50.25,15.62,50.25z"/>
	</g>
</g>
<g>
	<linearGradient id="SVGID_1_" gradientUnits="userSpaceOnUse" x1="99.7066" y1="70.8745" x2="99.7066" y2="3.875">
		<stop  offset="0" style="stop-color:#5B57A5"/>
		<stop  offset="0.5447" style="stop-color:#2E3092"/>
		<stop  offset="1" style="stop-color:#262262"/>
	</linearGradient>
	<path class="st1" d="M60.61,70.87c-0.44,0-0.93,0-1.47-0.01c-1.11,0-2.55-0.01-4.32-0.03c-1.84-0.02-2.62-0.04-2.77-0.05
		c-0.14-0.01-0.33-0.08-0.44-0.36c-0.31-1.47-0.58-2.56-0.8-3.26c-0.07-0.09-0.21-0.16-0.41-0.18c-0.23-0.02-0.45-0.04-0.65-0.07
		c-1.22-0.06-2.39-0.09-3.48-0.09c-0.54,0-1.07,0.01-1.59,0.02c-0.07,0-0.17,0.02-0.26,0.17c-0.03,0.04-0.07,0.09-0.16,0.38
		c-0.42,1.74-0.7,2.83-0.83,3.21c-0.22,0.16-0.75,0.26-3.45,0.26l-1.06,0l-6.11-0.07l-0.21-0.26l7.79-26.27
		c0.14-0.18,0.29-0.26,0.49-0.26c0,0,14.19,0.1,14.19,0.1c0.23,0,0.41,0.21,0.58,0.65c4.65,16.16,7.19,25.01,7.35,25.59
		c0.03,0.09,0.02,0.18-0.02,0.25c-0.06,0.11-0.18,0.18-0.36,0.23C62.16,70.86,61.5,70.87,60.61,70.87z M48.18,63.03
		c1.81,0.2,3.22,0.49,4.13,0.82l0.07,0.03l0.44,3.2c-0.02,0.49,0.05,0.61,0.08,0.64c0.01,0,0.02,0.01,0.03,0.01
		c0.02,0,0.05-0.01,0.09-0.04c0.77-1.47,1.36-2.63,1.72-3.4l0.04-0.08l0.09,0.01c1.93,0.18,3.4,0.43,4.38,0.74
		c0.02-0.01,0.06-0.03,0.08-0.08c0.04-0.08,0.06-0.17,0.06-0.26l-2.88-2.77l-0.19-0.44l0.04-0.06c0.71-1.01,1.41-2.23,2.08-3.63
		l-0.08-0.1c-0.16,0.08-0.62,0.32-1.93,1.02c-0.83,0.42-1.54,0.73-2.12,0.91l-0.07,0.02l-2.69-2.6l-0.13,0.03
		c0.03,0.33,0.1,0.93,0.22,1.81c0.11,0.88,0.17,1.54,0.17,2.01v0.08l-3.59,1.8l-0.18,0.25L48.18,63.03z M47.71,51.91
		c-0.08,0.11-0.13,0.2-0.14,0.28c-0.09,0.43-0.35,1.6-0.77,3.53c-0.31,1.42-0.52,2.61-0.63,3.54c-0.08,0.62,0.01,0.8,0.06,0.86
		c0.93,0.01,1.75,0.04,2.39,0.04c0.21,0,0.41,0,0.58-0.01c0.11-0.03,0.14-0.08,0.11-0.21c-0.66-3.5-1.16-6.01-1.53-7.67
		C47.77,52.08,47.74,51.97,47.71,51.91z M81.93,70.86c-2.13,0-3.96-0.23-5.45-0.67l-3.71-2.04c-3.05-2.42-4.58-5.95-4.58-10.51
		c0-3.24,0.89-6.2,2.65-8.77c1.45-2.12,3.3-3.58,5.51-4.37c1.44-0.51,3.2-0.77,5.22-0.77c1.2,0,2.51,0.09,3.9,0.27l1.65,0.5
		c1.6,0.47,3.1,1.39,4.45,2.76c1.35,1.36,2.17,2.87,2.44,4.49c0.18,0.73,0.3,1.82,0.37,3.24c-0.06,0.16-0.11,0.26-3.57,0.43
		c-2.15,0.09-3.92,0.13-5.25,0.13c-1.09,0-1.11-0.02-1.16-0.07c-0.16-1.17-0.27-1.86-0.36-2.14c-0.23-0.69-0.64-1.18-1.23-1.45
		c-0.23-0.1-0.46-0.16-0.68-0.16c-0.33,0-0.63,0.12-0.92,0.37c-0.62,0.53-1.03,1.29-1.22,2.26c-0.06,0.35-0.15,1.29-0.23,2.71
		c-0.04,0.6-0.07,1.13-0.07,1.59c0,1.94,0.36,3.47,1.08,4.55c0.29,0.46,0.76,0.68,1.44,0.68l0.18,0c0.76-0.17,1.26-0.65,1.51-1.47
		c0.11-0.39,0.26-1.18,0.46-2.34c0.25-1.6,0.29-1.6,0.42-1.6c4.05,0.04,7.11,0.07,9.17,0.07c0.15,0.06,0.19,0.16,0.19,0.62
		c0,1.14-0.2,2.52-0.6,4.12c-0.49,2.03-1.13,3.48-1.89,4.31C89.56,69.76,86.29,70.86,81.93,70.86z M73.97,57.43
		c1.03,1.28,1.72,2.15,2.21,2.7l0.25,0.1l0.05-0.08L76,56.9l0.15-0.64l3.01-1.39c0.08-0.1,0.07-0.13,0.03-0.16l-3.09-0.66
		l-0.27-0.27l-0.33-3.46l-0.1-0.21l-0.12,0.05l-1.47,2.61c-0.16,0.39-0.4,0.6-0.69,0.6l-3-0.8l-0.12,0.03
		c0.92,1.21,1.68,2.08,2.2,2.63l0.06,0.06l-0.04,0.08c-0.8,1.51-1.46,2.62-1.97,3.3c0.06,0.08,0.1,0.1,0.13,0.1l3.27-1.37
		L73.97,57.43z M156.98,70.86c-2.88,0-5.46-0.62-7.67-1.84c-1.98-1.11-3.58-2.75-4.73-4.87c-1.09-2.05-1.64-4.39-1.64-6.97
		c0-3.56,0.98-6.55,2.92-8.88c2.36-2.85,5.97-4.3,10.73-4.3c5.89,0,9.98,2.06,12.17,6.11c0.95,1.8,1.53,3.61,1.71,5.4l-0.1,3.67
		c-0.27,2.17-1.04,4.19-2.28,6.01c-1.31,1.94-2.98,3.39-4.97,4.33c-0.68,0.31-1.5,0.58-2.45,0.8c-0.54,0.13-1.36,0.3-2.53,0.5
		C157.73,70.85,157.35,70.86,156.98,70.86z M156.73,50.47c-0.12,0-0.23,0.02-0.35,0.06c-0.7,0.05-1.3,0.57-1.83,1.57
		c-0.22,0.91-0.43,3.01-0.61,6.23c0.07,1.63,0.29,2.99,0.66,4.04c0.15,0.43,0.33,0.78,0.55,1.06c0.42,0.38,0.97,0.58,1.59,0.58
		c0.36,0,0.67-0.07,0.94-0.22c0.52-0.29,0.91-0.77,1.14-1.43l0.46-1.91l0.06-1.37v-3.61c-0.13-1.91-0.46-3.29-0.99-4.08
		C157.84,50.78,157.29,50.47,156.73,50.47z M147.37,53.7c0.04,1.39,0.07,2.44,0.07,3.16l-0.3,0.35l-3.4,1.13
		c0.04,0.01,0.06,0.04,0.12,0.07l3.1,0.99l0.45,0.43l-0.03,2.82c-0.02,0.13-0.02,0.23,0,0.3l0.06,0.07
		c0.81-1.18,1.41-2.07,1.81-2.66l0.04-0.06h0.37l3.43,1.14c0.02,0,0.04,0.01,0.05,0.01c0.04,0,0.05-0.03,0.05-0.09l-2.19-3.13
		l0.06-0.07c1.02-1.26,1.76-2.2,2.22-2.82c0.03-0.04,0.04-0.09,0.04-0.16c-0.01-0.01-0.03-0.03-0.07-0.04
		c-0.16,0.06-0.77,0.28-1.79,0.66c-0.78,0.31-1.43,0.48-1.93,0.51l-0.07,0l-0.04-0.06c-0.51-0.73-1.18-1.59-1.98-2.56L147.37,53.7z
		 M120.71,51.43l-6.81-0.1l-0.03-7.26l25.9-0.07v7.06l-6.71,0.1l-0.03,19.6l-12.34,0.07L120.71,51.43z M122.91,51.13l0.38,0.47
		l-0.44,3.28l0.02,0.1c0.03,0.02,0.06,0.04,0.1,0.05c0.18-0.2,0.55-0.64,1.12-1.31c0.5-0.59,0.93-1.02,1.32-1.31l0.06-0.04
		l0.07,0.03c1.65,0.67,2.91,1.22,3.76,1.63l0.03-0.12l-1.85-3.23l0.05-0.45l2.73-2.63c0.05-0.03,0.08-0.04,0.06-0.12
		c-0.02-0.03-0.08-0.07-0.16-0.11c-1.55,0.43-2.81,0.69-3.66,0.81L126,48l-1.66-2.98l-0.03-0.04v-0.13l-0.04,0.13
		c-0.07,0-0.09,0.01-0.1,0.07l-0.4,3.31l-0.37,0.38l-3.56,0.75c0,0.04-0.02,0.08-0.04,0.13L122.91,51.13z M10.72,51.43l-6.81-0.1
		l-0.03-7.26L29.77,44v7.06l-6.71,0.1l-0.03,19.6l-12.34,0.07L10.72,51.43z M12.92,51.13l0.38,0.47l-0.44,3.28l-0.06,0.2l0.08-0.1
		c0.03,0.02,0.06,0.04,0.1,0.05c0.18-0.2,0.55-0.64,1.12-1.31c0.5-0.59,0.93-1.02,1.32-1.31l0.06-0.04l0.07,0.03
		c1.65,0.67,2.91,1.22,3.76,1.63l0.03-0.12l-1.85-3.23l0.05-0.45l2.73-2.63c0.05-0.03,0.08-0.04,0.06-0.12
		c-0.02-0.03-0.08-0.08-0.16-0.11c-1.55,0.43-2.81,0.69-3.66,0.81L16.01,48l-1.66-2.98l-0.03-0.04v-0.13l-0.04,0.13
		c-0.07,0-0.09,0.01-0.1,0.07l-0.4,3.31l-0.37,0.38l-3.56,0.75c0,0.04-0.02,0.08-0.04,0.13L12.92,51.13z M174.09,70.8V44.04
		L195.5,44l0.04,6.96l-9.92,0.14l-0.08,0.13c0.06,0.54,0.11,1.38,0.19,2.44h9.14l0.04,7.73l-9.23-0.1l0.03,2.07h9.74v7.46
		L174.09,70.8z M175.27,56.71c0.02,0.01,0.02,0.07,0.06,0.17l3,1.56l0.44,0.54l-0.48,2.08c0.05,0.09,0.03,0.31-0.07,0.61
		c-0.12,0.36-0.13,0.44-0.13,0.46c0,0.06,0.01,0.13,0.11,0.18l2.51-2.48l0.33,0.08l3.15,1.7l0.3,0.09l0.04-0.1l-0.9-1.74
		c-0.37-0.76-0.62-1.37-0.77-1.88l-0.02-0.08l2.16-1.81c0,0,0,0,0,0c-0.01,0,0.04-0.07,0.53-0.5c0.16-0.12,0.25-0.23,0.28-0.34
		c-0.39,0.02-0.95,0.09-1.67,0.23c-0.82,0.16-1.44,0.23-1.85,0.23c-0.21,0-0.42-0.02-0.63-0.07l-0.06-0.01l-1.55-3.08L180,52.37
		l0.03,0.12c-0.05,0.01-0.09,0.05-0.12,0.1l-0.55,3.25l-0.38,0.34L175.27,56.71z M174.23,31c-2.13,0-3.96-0.23-5.45-0.67l-3.71-2.04
		c-3.05-2.42-4.58-5.95-4.58-10.51c0-3.24,0.89-6.19,2.65-8.77c1.45-2.12,3.3-3.58,5.51-4.37c1.44-0.51,3.2-0.77,5.22-0.77
		c1.2,0,2.52,0.09,3.9,0.27l1.65,0.5c1.6,0.47,3.1,1.4,4.45,2.76c1.35,1.37,2.17,2.87,2.44,4.49c0.18,0.72,0.3,1.81,0.37,3.24
		c-0.07,0.16-0.11,0.26-3.57,0.43c-2.15,0.09-3.92,0.13-5.25,0.13c-1.09,0-1.11-0.02-1.16-0.07c-0.16-1.16-0.27-1.86-0.36-2.14
		c-0.23-0.69-0.64-1.18-1.23-1.45c-0.23-0.1-0.46-0.16-0.68-0.16c-0.33,0-0.63,0.12-0.92,0.37c-0.62,0.53-1.03,1.29-1.22,2.25
		c-0.07,0.35-0.14,1.26-0.23,2.71c-0.04,0.6-0.07,1.13-0.07,1.59c0,1.94,0.36,3.47,1.08,4.55c0.29,0.46,0.76,0.68,1.44,0.68l0.18,0
		c0.76-0.17,1.26-0.65,1.51-1.47c0.11-0.39,0.26-1.18,0.46-2.34c0.25-1.6,0.29-1.6,0.42-1.6c4.05,0.04,7.11,0.07,9.17,0.07
		c0.15,0.06,0.19,0.16,0.19,0.62c0,1.13-0.2,2.52-0.6,4.12c-0.49,2.03-1.13,3.48-1.89,4.31C181.86,29.89,178.59,31,174.23,31z
		 M166.27,17.56c1.03,1.29,1.73,2.15,2.21,2.7l0.25,0.09l0.05-0.08l-0.48-3.24l0.15-0.64l3.01-1.39c0.08-0.1,0.07-0.13,0.03-0.16
		l-3.1-0.66l-0.27-0.27l-0.33-3.46l-0.1-0.21l-0.12,0.05l-1.47,2.6c-0.16,0.39-0.4,0.6-0.69,0.6l-3-0.8l-0.2-0.07l0.08,0.1
		c0.92,1.21,1.68,2.08,2.2,2.63l0.06,0.06l-0.04,0.08c-0.8,1.51-1.46,2.62-1.97,3.31c0.06,0.08,0.1,0.1,0.13,0.1l3.27-1.37
		L166.27,17.56z M57.6,31c-2.88,0-5.47-0.62-7.67-1.84c-1.98-1.11-3.57-2.75-4.73-4.87c-1.09-2.05-1.64-4.39-1.64-6.97
		c0-3.56,0.98-6.55,2.92-8.88c2.36-2.85,5.97-4.3,10.73-4.3c5.89,0,9.98,2.06,12.17,6.11c0.96,1.8,1.53,3.61,1.71,5.4l-0.1,3.67
		c-0.27,2.17-1.04,4.19-2.28,6.01c-1.31,1.94-2.98,3.39-4.97,4.33c-0.67,0.31-1.5,0.58-2.45,0.8c-0.53,0.13-1.39,0.3-2.53,0.5
		C58.35,30.99,57.97,31,57.6,31z M57.35,10.6c-0.12,0-0.23,0.02-0.35,0.06c-0.7,0.05-1.3,0.57-1.82,1.57
		c-0.23,0.91-0.43,3.02-0.61,6.23c0.07,1.63,0.29,3,0.66,4.04c0.15,0.43,0.33,0.78,0.55,1.06c0.42,0.38,0.97,0.58,1.59,0.58
		c0.36,0,0.67-0.07,0.94-0.22c0.52-0.29,0.91-0.77,1.14-1.43l0.46-1.91l0.06-1.37v-3.61c-0.13-1.91-0.46-3.29-0.99-4.08
		C58.47,10.91,57.92,10.6,57.35,10.6z M47.99,13.83c0.04,1.39,0.07,2.44,0.07,3.16l-0.3,0.35l-3.4,1.13
		c0.04,0.01,0.06,0.04,0.12,0.07l3.1,0.99l0.45,0.43l-0.03,2.81c-0.02,0.13-0.02,0.23,0,0.3l0.06,0.07
		c0.81-1.18,1.41-2.07,1.81-2.66l0.04-0.06h0.37l3.43,1.14c0.02,0,0.03,0.01,0.05,0.01c0.04,0,0.05-0.03,0.05-0.09l-2.19-3.13
		l0.06-0.07c1.02-1.26,1.76-2.2,2.22-2.82c0.03-0.04,0.04-0.09,0.04-0.16c-0.01-0.01-0.03-0.03-0.07-0.04
		c-0.15,0.06-0.77,0.29-1.79,0.66c-0.78,0.31-1.43,0.48-1.93,0.51l-0.07,0l-0.04-0.06c-0.52-0.73-1.18-1.59-1.98-2.56L47.99,13.83z
		 M121.82,11.56l-6.81-0.1l-0.03-7.26l25.9-0.07v7.06l-6.71,0.1l-0.03,19.6l-12.34,0.07L121.82,11.56z M124.02,11.26l0.38,0.47
		l-0.44,3.28l-0.06,0.2l0.08-0.1c0.03,0.02,0.06,0.04,0.1,0.05c0.18-0.2,0.55-0.64,1.12-1.31c0.5-0.59,0.93-1.02,1.32-1.31
		l0.06-0.04l0.07,0.03c1.65,0.67,2.91,1.22,3.76,1.63l0.03-0.12l-1.85-3.23l0.05-0.45l2.73-2.63c0.05-0.03,0.08-0.04,0.06-0.12
		c-0.02-0.03-0.08-0.08-0.16-0.11c-1.55,0.42-2.81,0.69-3.66,0.81l-0.49-0.17l-1.66-2.98l-0.03-0.04V4.99l-0.04,0.13
		c-0.08,0-0.09,0.02-0.1,0.07l-0.4,3.31l-0.37,0.38l-3.56,0.75c0,0.04-0.02,0.08-0.04,0.13L124.02,11.26z M15.32,30.93l0.07-26.79
		l0.12,0c3.06-0.04,5.83-0.07,8.31-0.07c5.09,0,8.52,0.09,10.18,0.27c1.11,0.16,2.15,0.62,3.1,1.37c0.95,0.75,1.7,1.67,2.21,2.72
		c0.67,1.36,1.01,2.92,1.01,4.64c0,1.07-0.15,2.07-0.44,2.99c-0.36,1.87-1.46,3.56-3.26,5.01c-0.46,0.26-0.9,0.49-1.32,0.71
		c-0.52,0.3-1.01,0.46-1.45,0.48c-0.93,0.31-2.19,0.48-3.72,0.5c-1.25,0-2.5,0.01-3.75,0.03c-0.07,0.62-0.09,3.32-0.05,8.05l0,0.13
		L15.32,30.93z M23.04,24.37c0.04,0.03,0.09,0.09,0.16,0.19c0.08,0.11,0.11,0.11,0.11,0.11c0.03,0,0.05-0.01,0.08-0.02
		c0.09-2.18,0.16-3.56,0.23-4.13l0.01-0.08l3.43-0.99l0.09-0.1c-1.29-0.6-2.32-1.03-3.06-1.29l-0.35-0.41l0.14-3.85h0
		c-0.95,1.14-1.66,2-2.13,2.59l-0.65,0.46l-0.06-0.03c-1.45-0.59-2.55-1.04-3.3-1.35c-0.04,0.13-0.05,0.16-0.05,0.17
		c1.19,1.68,1.9,2.73,2.04,2.96l0.04,0.07l-0.05,0.07c-1.09,1.51-1.97,2.59-2.64,3.21c-0.05,0.05-0.01,0.09,0.2,0.12
		c1.62-0.51,2.9-0.81,3.86-0.9l0.08-0.01L23.04,24.37z M26.06,15.71c0.41,0.06,0.79,0.09,1.14,0.09c0.96,0,1.69-0.27,2.17-0.79
		c0.35-0.56,0.53-1.23,0.53-1.98c0-0.53-0.1-1.03-0.29-1.48c-0.37-0.81-1.41-1.26-3.08-1.32c-0.42,0.07-0.54,0.15-0.57,0.18v3.05
		C25.97,15.07,26.03,15.56,26.06,15.71z M144.68,4.14l11.18,0.07v26.72l-11.11,0.04L144.68,4.14z M153.52,14.93
		c0.04,0.06,0.07,0.11,0.19,0.11c0.07,0,0.1-0.01,0.11-0.04l-1.33-3.61l0.06-0.37c1.2-0.96,2.05-1.62,2.6-2.06
		c0.03-0.08,0.05-0.13,0.06-0.18c-1.7,0-2.79,0.01-3.17,0.03l-0.47-0.16l-1.35-3.74l-0.11,0.06l-0.85,3.15l-0.38,0.69l-3.57,0.03
		l-0.02,0.06l2.88,1.94l0.15,0.33c-1.1,3.37-1.23,3.72-1.27,3.79c0,0,0.01-0.01,0.02-0.01c0.04,0,0.12,0.02,0.3,0.02
		c1.54-1.24,2.63-2,3.17-2.25l0.07-0.03L153.52,14.93z M99.63,4.14l11.18,0.07v26.72L99.7,30.97L99.63,4.14z M108.47,14.93
		c0.04,0.06,0.07,0.11,0.19,0.11c0.05,0,0.1-0.01,0.11-0.04l-1.33-3.62l0.06-0.37c1.2-0.96,2.05-1.62,2.6-2.06
		c0.03-0.08,0.05-0.13,0.06-0.18c-1.7,0-2.79,0.01-3.17,0.03l-0.47-0.16l-1.35-3.74l-0.1,0.06l-0.85,3.15l-0.38,0.69l-3.57,0.03
		l-0.02,0.06l2.88,1.94l0.15,0.33c-1.1,3.37-1.23,3.72-1.27,3.79c0,0,0.01-0.01,0.02-0.01c0.04,0,0.12,0.02,0.3,0.02
		c1.54-1.23,2.63-2,3.17-2.25l0.07-0.03L108.47,14.93z M74.48,30.9L74.35,4.14l11.65,0.03l0.07,19.83l10.04,0.03l-0.14,6.93
		L74.48,30.9z M82.92,15.36c0.45,0.39,0.55,0.43,0.57,0.44l-1.2-3.83l0.1-0.35c1.2-0.92,2.09-1.62,2.69-2.12l0,0
		c-0.28-0.01-0.89-0.03-1.74-0.03c-0.19,0.01-0.38,0.01-0.55,0.01c-0.52,0-0.94-0.03-1.26-0.08l-0.07-0.01l-1.29-3.64h-0.15
		l-0.94,3.23l-0.43,0.56l-3.35-0.1c-0.02,0-0.05,0-0.08,0.06c-0.03,0.07-0.02,0.09-0.01,0.11l2.92,2.01l-0.02,0.08
		c-0.24,1.24-0.65,2.55-1.2,3.88c-0.01,0.06,0.02,0.09,0.19,0.09c1.23-1.06,2.33-1.83,3.2-2.28l0.07-0.04L82.92,15.36z"/>
	<path d="M173.87,4c1.2,0,2.49,0.09,3.89,0.26l1.63,0.5c1.6,0.46,3.06,1.37,4.4,2.72c1.34,1.35,2.14,2.82,2.41,4.42
		c0.18,0.73,0.3,1.8,0.36,3.22c-0.04,0.09-1.19,0.19-3.45,0.3c-2.15,0.09-3.9,0.13-5.25,0.13c-0.69,0-1.04-0.01-1.06-0.03
		c-0.13-1.11-0.24-1.8-0.33-2.09c-0.24-0.73-0.68-1.24-1.29-1.53c-0.25-0.11-0.5-0.17-0.73-0.17c-0.36,0-0.69,0.13-1,0.4
		c-0.64,0.55-1.06,1.33-1.26,2.32c-0.07,0.35-0.14,1.26-0.23,2.72c-0.04,0.6-0.07,1.13-0.07,1.6c0,1.97,0.36,3.51,1.1,4.62
		c0.31,0.49,0.82,0.74,1.54,0.74c0.06,0,0.12,0,0.19-0.01c0.82-0.18,1.36-0.7,1.63-1.56c0.11-0.4,0.27-1.19,0.46-2.36
		c0.16-1,0.25-1.5,0.3-1.5c4.05,0.04,7.11,0.07,9.17,0.07c0.04,0.02,0.07,0.19,0.07,0.5c0,1.13-0.2,2.49-0.6,4.08
		c-0.49,2.02-1.11,3.43-1.86,4.25c-2.08,2.17-5.29,3.26-9.63,3.26c-2.13,0-3.93-0.22-5.42-0.67l-3.69-2.03
		c-3.01-2.39-4.52-5.86-4.52-10.4c0-3.23,0.87-6.13,2.62-8.7c1.44-2.1,3.26-3.54,5.45-4.32C170.12,4.25,171.85,4,173.87,4
		 M165.41,13.37c-0.01,0-0.03,0-0.05,0l-2.92-0.8c-0.02-0.01-0.05-0.01-0.07-0.01c-0.06,0-0.11,0.02-0.16,0.06
		c-0.07,0.06-0.09,0.13-0.07,0.22c0.97,1.17,1.73,2.04,2.26,2.59c-0.8,1.51-1.45,2.6-1.96,3.29c-0.04,0.09-0.03,0.16,0.03,0.22
		c0.07,0.06,0.13,0.08,0.2,0.08l3.29-1.36l0.3,0.03c0.93,1.22,1.64,2.1,2.13,2.66l0.4,0.17l0.1-0.17l-0.46-3.32l0.13-0.53l2.96-1.36
		c0.07-0.02,0.11-0.07,0.13-0.13c0.02-0.09,0-0.17-0.07-0.23l-3.16-0.7l-0.2-0.23l-0.3-3.39l-0.17-0.36l-0.23,0.1l-1.53,2.66
		C165.85,13.19,165.65,13.37,165.41,13.37 M23.82,4.2c5.12,0,8.51,0.09,10.17,0.27c1.09,0.15,2.1,0.6,3.04,1.34
		c0.94,0.74,1.67,1.63,2.18,2.67c0.66,1.35,1,2.88,1,4.59c0,1.06-0.14,2.05-0.43,2.96c-0.36,1.86-1.43,3.51-3.22,4.95
		c-0.44,0.24-0.88,0.48-1.3,0.7c-0.51,0.29-0.97,0.44-1.39,0.46c-0.95,0.31-2.19,0.48-3.72,0.5c-1.29,0-2.57,0.01-3.85,0.03
		c-0.09,0.38-0.11,3.1-0.07,8.17l-10.76-0.03l0.07-26.54C18.57,4.22,21.33,4.2,23.82,4.2 M25.84,10.38c0-0.01,0-0.01,0-0.01
		S25.84,10.37,25.84,10.38c0,0.12,0,1.15,0,3.09c0,1.42,0.04,2.2,0.13,2.36c0.44,0.07,0.85,0.1,1.23,0.1c1,0,1.75-0.28,2.26-0.83
		c0.38-0.6,0.57-1.28,0.57-2.06c0-0.55-0.1-1.06-0.3-1.53c-0.4-0.86-1.46-1.33-3.19-1.39C26.12,10.18,25.89,10.27,25.84,10.38
		 M21.09,16.72c-1.53-0.62-2.67-1.08-3.42-1.39c-0.07,0.18-0.1,0.29-0.1,0.33c1.24,1.79,1.93,2.8,2.06,3.02
		c-1.09,1.51-1.96,2.57-2.63,3.19c-0.18,0.18-0.09,0.29,0.27,0.33c1.64-0.51,2.93-0.81,3.89-0.9l1.79,3.15
		c0.02,0,0.07,0.06,0.15,0.17c0.08,0.11,0.15,0.17,0.22,0.17c0.07,0,0.13-0.02,0.2-0.07c0.09-2.24,0.17-3.63,0.23-4.19l3.35-0.96
		l0.27-0.27c-1.37-0.64-2.45-1.1-3.22-1.36l-0.3-0.37l0.17-3.85l-0.17-0.07c-0.97,1.17-1.71,2.06-2.19,2.66L21.09,16.72 M144.8,4.26
		l10.93,0.07v26.48l-10.86,0.03L144.8,4.26 M147.39,15.09c1.62-1.26,2.69-2.02,3.22-2.26l2.82,2.19c0.04,0.09,0.13,0.13,0.26,0.13
		c0.13,0,0.21-0.04,0.23-0.13l-1.33-3.69l0.07-0.3c1.15-0.89,2-1.55,2.56-1.99c0.11-0.24,0.15-0.38,0.13-0.4
		c-1.84,0-2.95,0.01-3.32,0.03l-0.36-0.13l-1.33-3.69c-0.02-0.02-0.05-0.03-0.08-0.03c-0.03,0-0.06,0.01-0.09,0.03l-0.17,0.03
		l-0.86,3.19l-0.33,0.6l-3.59,0.03l-0.07,0.23l2.96,1.99l0.1,0.27c-0.8,2.39-1.22,3.62-1.26,3.69
		C146.94,15.03,147.08,15.09,147.39,15.09 M140.75,4.26v6.81l-6.71,0.1L134,30.77l-12.09,0.07l0.03-19.4l-6.81-0.1l-0.03-7.01
		L140.75,4.26 M124.14,15.29c0.16-0.18,0.54-0.63,1.16-1.36c0.49-0.58,0.92-1.01,1.3-1.3c1.75,0.71,3.04,1.27,3.89,1.7l0.07-0.27
		l-1.86-3.32l0.07-0.37l2.69-2.56c0.09-0.04,0.12-0.12,0.1-0.23c-0.04-0.09-0.12-0.16-0.23-0.2c-1.64,0.42-2.88,0.69-3.72,0.8
		l-0.43-0.17l-1.6-2.92c-0.02-0.07-0.06-0.11-0.14-0.11c-0.02,0-0.04,0-0.06,0.01c-0.11,0-0.18,0.06-0.2,0.17l-0.4,3.32l-0.33,0.3
		l-3.72,0.76l0.1,0.03c0.04,0,0.02,0.08-0.07,0.23l3.22,1.56l0.33,0.43l-0.47,3.19c-0.02,0.09,0,0.16,0.07,0.22
		C123.97,15.27,124.05,15.29,124.14,15.29 M99.75,4.26l10.93,0.07v26.48l-10.86,0.03L99.75,4.26 M102.35,15.09
		c1.62-1.26,2.69-2.02,3.22-2.26l2.82,2.19c0.04,0.09,0.13,0.13,0.26,0.13c0.13,0,0.21-0.04,0.23-0.13l-1.33-3.69l0.07-0.3
		c1.15-0.89,2-1.55,2.56-1.99c0.11-0.24,0.15-0.38,0.13-0.4c-1.84,0-2.95,0.01-3.32,0.03l-0.36-0.13l-1.33-3.69
		c-0.02-0.02-0.05-0.03-0.08-0.03s-0.06,0.01-0.09,0.03l-0.17,0.03l-0.86,3.19l-0.33,0.6l-3.59,0.03l-0.07,0.23l2.96,1.99l0.1,0.27
		c-0.8,2.39-1.22,3.62-1.26,3.69C101.89,15.03,102.03,15.09,102.35,15.09 M74.47,4.26l11.4,0.03l0.07,19.83l10.03,0.03l-0.13,6.68
		l-21.23-0.07L74.47,4.26 M78.59,9.41l-3.29-0.1c-0.09,0-0.16,0.04-0.2,0.13c-0.04,0.09-0.04,0.17,0,0.23
		c1.28,0.89,2.25,1.55,2.89,1.99c-0.24,1.24-0.64,2.52-1.2,3.85c-0.07,0.18,0.03,0.27,0.3,0.27c1.31-1.08,2.39-1.85,3.25-2.29
		l2.49,1.96c0.35,0.31,0.57,0.46,0.63,0.46s0.12-0.02,0.17-0.07l-1.23-3.92l0.1-0.26c1.24-0.93,2.16-1.65,2.76-2.16l-0.1-0.1
		c-0.36-0.04-0.96-0.07-1.83-0.07c-0.2,0.01-0.38,0.01-0.55,0.01c-0.51,0-0.93-0.03-1.24-0.07l-1.3-3.65h-0.33l-0.96,3.32
		L78.59,9.41 M57.2,4.26c5.87,0,9.89,2.02,12.06,6.05c0.95,1.79,1.52,3.58,1.7,5.35l-0.1,3.65c-0.27,2.15-1.02,4.13-2.26,5.95
		c-1.31,1.93-2.95,3.35-4.92,4.29c-0.67,0.31-1.47,0.58-2.43,0.8c-0.53,0.13-1.37,0.3-2.53,0.5c-0.38,0.02-0.76,0.03-1.13,0.03
		c-2.87,0-5.41-0.61-7.61-1.82c-1.97-1.11-3.53-2.71-4.68-4.82c-1.09-2.04-1.63-4.34-1.63-6.91c0-3.54,0.96-6.48,2.89-8.8
		C48.92,5.68,52.46,4.26,57.2,4.26 M57.37,24.26c0.38,0,0.71-0.08,1-0.23c0.55-0.31,0.95-0.81,1.2-1.49
		c0.16-0.64,0.31-1.28,0.46-1.93l0.07-1.4v-3.62c-0.13-1.95-0.47-3.33-1.01-4.15c-0.54-0.64-1.12-0.96-1.73-0.96
		c-0.13,0-0.26,0.02-0.39,0.07c-0.72,0.04-1.35,0.59-1.89,1.63c-0.24,0.95-0.45,3.05-0.62,6.28c0.07,1.66,0.29,3.02,0.67,4.09
		c0.15,0.44,0.34,0.81,0.57,1.1C56.14,24.05,56.7,24.26,57.37,24.26 M48.03,23.25c0.03,0,0.07-0.01,0.1-0.02
		c0.82-1.2,1.43-2.09,1.83-2.69h0.3l3.39,1.13c0.04,0.02,0.08,0.02,0.12,0.02c0.1,0,0.15-0.07,0.15-0.22l-2.16-3.12
		c1.02-1.26,1.76-2.2,2.22-2.82c0.04-0.07,0.07-0.14,0.07-0.23c-0.02-0.09-0.08-0.14-0.17-0.16c-0.22,0.07-0.84,0.29-1.86,0.66
		c-0.77,0.31-1.41,0.48-1.89,0.5c-0.53-0.75-1.22-1.64-2.06-2.66l-0.2,0.13c0.04,1.42,0.07,2.49,0.07,3.22l-0.27,0.26l-3.35,1.1
		c-0.09,0.11-0.06,0.21,0.1,0.3l3.12,1l0.4,0.4l-0.07,2.72c-0.02,0.13-0.02,0.24,0,0.33C47.88,23.2,47.94,23.25,48.03,23.25
		 M81.57,43.86c1.2,0,2.49,0.09,3.89,0.26l1.63,0.5c1.6,0.47,3.06,1.37,4.4,2.72c1.34,1.35,2.14,2.82,2.41,4.42
		c0.18,0.73,0.3,1.8,0.36,3.22c-0.04,0.09-1.19,0.19-3.45,0.3c-2.15,0.09-3.9,0.13-5.25,0.13c-0.69,0-1.04-0.01-1.06-0.03
		c-0.13-1.11-0.24-1.8-0.33-2.09c-0.24-0.73-0.68-1.24-1.29-1.53c-0.25-0.11-0.5-0.17-0.73-0.17c-0.36,0-0.69,0.13-1,0.4
		c-0.64,0.55-1.06,1.33-1.26,2.32c-0.07,0.35-0.14,1.26-0.23,2.72c-0.04,0.6-0.07,1.13-0.07,1.6c0,1.97,0.36,3.51,1.1,4.62
		c0.31,0.49,0.82,0.74,1.54,0.74c0.06,0,0.12,0,0.19-0.01c0.82-0.18,1.36-0.7,1.63-1.56c0.11-0.4,0.27-1.19,0.47-2.36
		c0.16-1,0.25-1.5,0.3-1.5c4.05,0.04,7.11,0.07,9.17,0.07c0.04,0.02,0.07,0.19,0.07,0.5c0,1.13-0.2,2.49-0.6,4.08
		c-0.49,2.02-1.11,3.43-1.86,4.25c-2.08,2.17-5.29,3.26-9.63,3.26c-2.13,0-3.93-0.22-5.42-0.67l-3.69-2.03
		c-3.01-2.39-4.52-5.86-4.52-10.4c0-3.23,0.87-6.13,2.62-8.7c1.44-2.1,3.26-3.54,5.45-4.32C77.82,44.12,79.55,43.86,81.57,43.86
		 M73.11,53.23c-0.01,0-0.03,0-0.05,0l-2.92-0.8c-0.02-0.01-0.05-0.01-0.07-0.01c-0.06,0-0.11,0.02-0.16,0.06
		c-0.07,0.06-0.09,0.13-0.07,0.22c0.97,1.17,1.73,2.04,2.26,2.59c-0.8,1.51-1.45,2.6-1.96,3.29c-0.04,0.09-0.03,0.16,0.03,0.22
		c0.07,0.06,0.13,0.08,0.2,0.08l3.29-1.36l0.3,0.03c0.93,1.22,1.64,2.1,2.13,2.66l0.4,0.17l0.1-0.17l-0.46-3.32l0.13-0.53l2.96-1.36
		c0.07-0.02,0.11-0.07,0.13-0.13c0.02-0.09,0-0.17-0.07-0.23l-3.16-0.7l-0.2-0.23l-0.3-3.39l-0.17-0.36l-0.23,0.1L73.7,52.7
		C73.55,53.06,73.35,53.23,73.11,53.23 M195.38,44.13l0.03,6.71l-9.8,0.13l-0.17,0.17c0.02,0.65,0.08,1.54,0.17,2.65h9.14l0.03,7.47
		l-9.24-0.1l0.03,2.32h9.73v7.21l-21.1-0.03V44.16L195.38,44.13 M178.24,62.47l2.53-2.49l0.27,0.07l3.12,1.69l0.43,0.13l0.1-0.27
		c-0.31-0.6-0.62-1.2-0.93-1.79c-0.35-0.73-0.61-1.35-0.76-1.86l2.09-1.76c0.02-0.04,0.2-0.21,0.53-0.5
		c0.24-0.18,0.35-0.37,0.33-0.57c-0.4,0-1.01,0.08-1.83,0.23s-1.43,0.23-1.83,0.23c-0.2,0-0.4-0.02-0.6-0.07l-1.53-3.02
		c-0.02-0.09-0.08-0.13-0.17-0.13c-0.09,0.02-0.16,0.08-0.2,0.17l-0.57,3.29l-0.33,0.27l-3.69,0.5c-0.07,0.04-0.07,0.16,0,0.33
		l3.06,1.63l0.36,0.46l-0.46,2.03c0.04,0.13,0.02,0.33-0.07,0.6c-0.09,0.26-0.13,0.43-0.13,0.5
		C177.97,62.29,178.06,62.4,178.24,62.47 M156.58,44.13c5.87,0,9.89,2.02,12.06,6.05c0.95,1.79,1.52,3.58,1.7,5.35l-0.1,3.65
		c-0.27,2.15-1.02,4.13-2.26,5.95c-1.31,1.93-2.95,3.35-4.92,4.29c-0.67,0.31-1.47,0.58-2.43,0.8c-0.53,0.13-1.37,0.3-2.53,0.5
		c-0.38,0.02-0.76,0.03-1.13,0.03c-2.87,0-5.41-0.61-7.61-1.82c-1.97-1.11-3.53-2.71-4.68-4.82c-1.09-2.04-1.63-4.34-1.63-6.91
		c0-3.54,0.96-6.48,2.89-8.8C148.29,45.55,151.84,44.13,156.58,44.13 M156.74,64.13c0.38,0,0.71-0.08,1-0.23
		c0.55-0.31,0.95-0.81,1.2-1.5c0.16-0.64,0.31-1.28,0.46-1.93l0.07-1.4v-3.62c-0.13-1.95-0.47-3.33-1.01-4.15
		c-0.54-0.64-1.12-0.96-1.73-0.96c-0.13,0-0.26,0.02-0.39,0.07c-0.72,0.04-1.35,0.59-1.89,1.63c-0.24,0.95-0.45,3.05-0.62,6.28
		c0.07,1.66,0.29,3.02,0.67,4.09c0.15,0.44,0.34,0.81,0.57,1.1C155.52,63.92,156.08,64.13,156.74,64.13 M147.41,63.11
		c0.03,0,0.07-0.01,0.1-0.02c0.82-1.2,1.43-2.09,1.83-2.69h0.3l3.39,1.13c0.04,0.02,0.08,0.02,0.12,0.02c0.1,0,0.15-0.07,0.15-0.22
		l-2.16-3.12c1.02-1.26,1.76-2.2,2.22-2.82c0.04-0.07,0.07-0.14,0.07-0.23c-0.02-0.09-0.08-0.14-0.17-0.16
		c-0.22,0.07-0.84,0.29-1.86,0.66c-0.77,0.31-1.41,0.48-1.89,0.5c-0.53-0.75-1.22-1.64-2.06-2.66l-0.2,0.13
		c0.04,1.42,0.07,2.49,0.07,3.22l-0.27,0.26l-3.36,1.1c-0.09,0.11-0.06,0.21,0.1,0.3l3.12,1l0.4,0.4l-0.07,2.72
		c-0.02,0.13-0.02,0.24,0,0.33C147.26,63.06,147.31,63.11,147.41,63.11 M139.64,44.13v6.81l-6.71,0.1l-0.03,19.6l-12.09,0.07
		l0.03-19.4l-6.81-0.1l-0.03-7.01L139.64,44.13 M123.03,55.16c0.16-0.18,0.54-0.63,1.16-1.36c0.49-0.58,0.92-1.01,1.3-1.3
		c1.75,0.71,3.04,1.27,3.89,1.7l0.07-0.27l-1.86-3.32l0.07-0.37l2.69-2.56c0.09-0.04,0.12-0.12,0.1-0.23
		c-0.04-0.09-0.12-0.16-0.23-0.2c-1.64,0.42-2.88,0.69-3.72,0.8l-0.43-0.17l-1.6-2.92c-0.02-0.07-0.06-0.11-0.14-0.11
		c-0.02,0-0.04,0-0.06,0.01c-0.11,0-0.18,0.06-0.2,0.17l-0.4,3.32l-0.33,0.3l-3.72,0.76l0.1,0.03c0.04,0,0.02,0.08-0.07,0.23
		l3.22,1.56l0.33,0.43l-0.46,3.19c-0.02,0.09,0,0.16,0.07,0.22S122.94,55.16,123.03,55.16 M40.91,44.13l14.19,0.1
		c0.01,0,0.02,0,0.02,0c0.15,0,0.29,0.19,0.44,0.57c4.74,16.48,7.19,25,7.34,25.58c0.04,0.16-0.06,0.27-0.3,0.33
		c-0.44,0.03-1.11,0.04-1.99,0.04c-0.44,0-0.92,0-1.47-0.01c-1.11,0-2.55-0.01-4.32-0.03c-1.68-0.02-2.6-0.04-2.76-0.05
		c-0.16-0.01-0.26-0.1-0.33-0.28c-0.31-1.46-0.58-2.55-0.8-3.25c-0.11-0.16-0.28-0.24-0.52-0.27c-0.23-0.02-0.45-0.04-0.65-0.07
		c-1.23-0.06-2.39-0.09-3.49-0.09c-0.55,0-1.08,0.01-1.59,0.02c-0.15,0-0.28,0.08-0.36,0.24c-0.04,0.04-0.1,0.18-0.17,0.41
		c-0.42,1.76-0.7,2.83-0.83,3.21c-0.21,0.12-1.32,0.17-3.33,0.17c-0.33,0-0.68,0-1.05,0c-2.02-0.02-4.03-0.04-6.05-0.07l-0.13-0.17
		l7.77-26.21C40.63,44.18,40.75,44.13,40.91,44.13 M48.63,60.28c0.22,0,0.41,0,0.58-0.01c0.2-0.04,0.28-0.17,0.23-0.36
		c-0.64-3.43-1.15-5.99-1.53-7.67c-0.04-0.31-0.11-0.49-0.2-0.53c-0.16,0.18-0.24,0.33-0.27,0.47c-0.09,0.42-0.34,1.59-0.76,3.52
		c-0.31,1.44-0.52,2.62-0.63,3.55c-0.07,0.51-0.03,0.83,0.1,0.96C47.17,60.26,47.99,60.28,48.63,60.28 M52.93,67.85
		c0.04,0,0.1-0.02,0.17-0.07c0.82-1.53,1.41-2.68,1.76-3.46c1.93,0.18,3.38,0.42,4.35,0.73c0.11,0,0.19-0.05,0.23-0.15
		c0.04-0.1,0.07-0.2,0.07-0.31l-2.92-2.86l-0.13-0.33c0.73-1.04,1.44-2.28,2.13-3.72l-0.2-0.23c-0.07,0.02-0.74,0.38-2.03,1.06
		c-0.82,0.42-1.52,0.72-2.09,0.9l-2.69-2.59l-0.3,0.07c0.02,0.29,0.1,0.93,0.23,1.93c0.11,0.86,0.16,1.53,0.16,1.99l-3.52,1.76
		l-0.3,0.4l0.27,0.17c1.86,0.22,3.24,0.5,4.15,0.83l0.43,3.12C52.68,67.59,52.76,67.85,52.93,67.85 M29.65,44.13v6.81l-6.71,0.1
		l-0.03,19.6l-12.09,0.07l0.03-19.4l-6.81-0.1L4,44.19L29.65,44.13 M13.03,55.16c0.16-0.18,0.54-0.63,1.16-1.36
		c0.49-0.58,0.92-1.01,1.3-1.3c1.75,0.71,3.04,1.27,3.89,1.7l0.07-0.27l-1.86-3.32l0.07-0.37l2.69-2.56
		c0.09-0.04,0.12-0.12,0.1-0.23c-0.04-0.09-0.12-0.16-0.23-0.2c-1.64,0.42-2.88,0.69-3.72,0.8l-0.43-0.17l-1.6-2.92
		c-0.02-0.07-0.06-0.11-0.14-0.11c-0.02,0-0.04,0-0.06,0.01c-0.11,0-0.18,0.06-0.2,0.17l-0.4,3.32l-0.33,0.3l-3.72,0.76l0.1,0.03
		c0.04,0,0.02,0.08-0.07,0.23l3.22,1.56l0.33,0.43l-0.46,3.19c-0.02,0.09,0,0.16,0.07,0.22S12.95,55.16,13.03,55.16 M173.87,3.75
		c-2.04,0-3.81,0.26-5.26,0.78c-2.24,0.79-4.11,2.28-5.57,4.41c-1.77,2.6-2.67,5.58-2.67,8.84c0,4.6,1.55,8.16,4.61,10.59l3.72,2.05
		l0.02,0.01l0.03,0.01c1.5,0.45,3.35,0.68,5.49,0.68c4.39,0,7.69-1.12,9.81-3.33c0.79-0.86,1.42-2.29,1.92-4.37
		c0.4-1.6,0.6-3,0.6-4.14c0-0.43-0.03-0.64-0.21-0.72l-0.05-0.03h-0.06c-2.09,0-5.17-0.02-9.17-0.07c-0.25,0-0.29,0.06-0.55,1.71
		c-0.2,1.15-0.35,1.94-0.46,2.33c-0.24,0.77-0.71,1.23-1.44,1.38c-0.01,0-0.02,0-0.04,0c-0.03,0-0.06,0-0.09,0
		c-0.63,0-1.07-0.2-1.33-0.62c-0.7-1.06-1.06-2.57-1.06-4.48c0-0.46,0.02-0.99,0.07-1.58c0.11-1.79,0.18-2.46,0.23-2.7
		c0.19-0.93,0.58-1.67,1.18-2.18c0.27-0.23,0.54-0.34,0.84-0.34c0.2,0,0.41,0.05,0.63,0.15c0.56,0.26,0.94,0.71,1.16,1.38
		c0.08,0.27,0.19,0.96,0.32,2.04l0.01,0.08l0.06,0.06c0.09,0.1,0.11,0.11,1.25,0.11c1.34,0,3.11-0.04,5.26-0.13
		c3.53-0.17,3.58-0.26,3.67-0.44l0.03-0.06l0-0.07c-0.07-1.43-0.19-2.53-0.37-3.27c-0.27-1.62-1.1-3.15-2.47-4.54
		c-1.36-1.38-2.88-2.31-4.51-2.79l-1.62-0.5C176.39,3.84,175.07,3.75,173.87,3.75L173.87,3.75z M165.41,13.62
		c0.24,0,0.58-0.12,0.82-0.69l1.43-2.48l0.02,0.05l0.29,3.35l0.01,0.08l0.05,0.06l0.2,0.23l0.05,0.06l0.08,0.02l2.92,0.65
		l-2.84,1.31l-0.11,0.05l-0.03,0.12l-0.13,0.53l-0.01,0.05l0.01,0.05l0.44,3.11l-0.07-0.03c-0.48-0.55-1.16-1.4-2.08-2.6l-0.06-0.08
		l-0.11-0.01l-0.3-0.03l-0.06-0.01l-0.06,0.02l-3.12,1.29c0.48-0.67,1.12-1.74,1.87-3.17l0.08-0.16l-0.12-0.13
		c-0.51-0.53-1.23-1.36-2.15-2.47l2.87,0.82l0.03,0.01L165.41,13.62L165.41,13.62z M23.82,3.95c-2.44,0-5.16,0.02-8.31,0.07l-0.25,0
		l0,0.25l-0.07,26.54l0,0.25l0.25,0l10.76,0.03l0.25,0l0-0.25c-0.05-5.39-0.01-7.33,0.04-7.92c1.21-0.02,2.42-0.03,3.63-0.03
		c1.53-0.02,2.8-0.19,3.77-0.5c0.45-0.03,0.94-0.2,1.47-0.5c0.42-0.22,0.85-0.45,1.29-0.7c1.87-1.49,2.98-3.21,3.35-5.12
		c0.29-0.9,0.44-1.92,0.44-3c0-1.73-0.34-3.31-1.02-4.7c-0.52-1.07-1.28-2-2.25-2.76c-0.97-0.77-2.04-1.24-3.16-1.4
		C32.34,4.04,28.91,3.95,23.82,3.95L23.82,3.95z M26.09,10.48c0.06-0.03,0.19-0.08,0.49-0.12c1.57,0.06,2.57,0.49,2.92,1.25
		c0.18,0.43,0.28,0.91,0.28,1.42c0,0.72-0.18,1.37-0.53,1.93c-0.44,0.47-1.11,0.71-2.05,0.71c-0.32,0-0.67-0.02-1.03-0.07
		c-0.03-0.19-0.08-0.72-0.08-2.13V10.48L26.09,10.48z M21.12,17.01l0.11-0.08l0.57-0.4l0.03-0.02l0.02-0.03
		c0.44-0.54,1.07-1.3,1.9-2.3l-0.15,3.39l0,0.1l0.06,0.07l0.3,0.37L24,18.17l0.07,0.02c0.69,0.24,1.65,0.64,2.84,1.19l-3.23,0.93
		l-0.16,0.05l-0.02,0.16c-0.07,0.55-0.14,1.87-0.22,3.93c-0.05-0.06-0.09-0.12-0.14-0.16l-1.76-3.1l-0.08-0.14l-0.16,0.01
		c-0.95,0.09-2.2,0.37-3.83,0.87c0.67-0.66,1.51-1.7,2.52-3.1l0.1-0.13l-0.09-0.14c-0.14-0.22-0.79-1.19-1.95-2.86
		c0.74,0.31,1.78,0.73,3.1,1.26L21.12,17.01L21.12,17.01z M144.55,4.01l0,0.25l0.07,26.58l0,0.25l0.25,0l10.86-0.03l0.25,0v-0.25
		V4.33V4.08l-0.25,0L144.8,4.01L144.55,4.01L144.55,4.01z M145.63,8.96l3.19-0.03l0.15,0l0.07-0.13l0.33-0.6l0.01-0.03l0.01-0.03
		l0.8-2.97l1.24,3.45l0.04,0.11l0.11,0.04l0.36,0.13L152,8.94l0.05,0c0.25-0.01,0.97-0.03,2.96-0.03c-0.55,0.44-1.39,1.09-2.5,1.94
		l-0.07,0.06l-0.02,0.09l-0.07,0.3l-0.02,0.07l0.02,0.07l1.23,3.41l-0.01-0.01l-2.82-2.19l-0.12-0.09l-0.14,0.06
		c-0.55,0.25-1.6,0.98-3.2,2.23c-0.02,0-0.04,0-0.06,0c0.12-0.31,0.41-1.15,1.21-3.55l0.03-0.08l-0.03-0.08l-0.1-0.27l-0.03-0.07
		l-0.07-0.04L145.63,8.96L145.63,8.96z M99.5,4.01l0,0.25l0.07,26.58l0,0.25l0.25,0l10.86-0.03l0.25,0v-0.25V4.33V4.08l-0.25,0
		L99.76,4.01L99.5,4.01L99.5,4.01z M100.59,8.96l3.19-0.03l0.15,0l0.07-0.13l0.33-0.6l0.01-0.03l0.01-0.03l0.8-2.97l1.24,3.45
		l0.04,0.11l0.11,0.04l0.36,0.13l0.05,0.02l0.05,0c0.25-0.01,0.97-0.03,2.96-0.03c-0.55,0.44-1.39,1.09-2.5,1.94l-0.07,0.06
		l-0.02,0.09l-0.07,0.3l-0.02,0.07l0.02,0.07l1.23,3.41l-0.01-0.01l-2.82-2.19l-0.12-0.09l-0.14,0.06c-0.55,0.25-1.6,0.98-3.2,2.23
		c-0.02,0-0.04,0-0.06,0c0.12-0.31,0.41-1.15,1.21-3.55l0.03-0.08l-0.03-0.08l-0.1-0.27l-0.03-0.07l-0.07-0.04L100.59,8.96
		L100.59,8.96z M74.22,4.01l0,0.25l0.13,26.51l0,0.25l0.25,0l21.23,0.07l0.25,0l0-0.25l0.13-6.68l0.01-0.25l-0.25,0l-9.78-0.03
		L86.12,4.3l0-0.25l-0.25,0l-11.4-0.03L74.22,4.01L74.22,4.01z M78.71,9.67l0.08-0.1l0.36-0.46l0.03-0.04l0.01-0.05l0.9-3.09
		l1.22,3.44l0.05,0.14l0.15,0.02c0.33,0.05,0.76,0.08,1.28,0.08c0.18,0,0.36,0,0.56-0.01c0.58,0,1.04,0.01,1.39,0.03
		c-0.58,0.48-1.38,1.1-2.38,1.85l-0.06,0.04l-0.03,0.07l-0.1,0.26l-0.03,0.08l0.03,0.08l1.09,3.48c-0.07-0.06-0.15-0.13-0.25-0.22
		l-2.5-1.97l-0.13-0.1l-0.14,0.07c-0.84,0.43-1.9,1.17-3.15,2.2c0.53-1.29,0.91-2.55,1.15-3.75l0.03-0.16l-0.13-0.09l-0.96-0.66
		l-1.84-1.27l3.24,0.12L78.71,9.67L78.71,9.67z M141,4.01l-0.25,0L115.1,4.08l-0.25,0l0,0.25l0.03,7.01l0,0.25l0.25,0l6.56,0.1
		l-0.03,19.15l0,0.25l0.25,0L134,31.02l0.25,0l0-0.25l0.03-19.35l6.46-0.1l0.25,0v-0.25V4.26V4.01L141,4.01z M121.13,9.72l3.36-0.69
		l0.07-0.01l0.05-0.05l0.33-0.3l0.07-0.06l0.01-0.09l0.38-3.2l1.54,2.82l0.04,0.08l0.09,0.03l0.43,0.17l0.06,0.02l0.06-0.01
		c0.83-0.11,2.05-0.37,3.62-0.77l-2.67,2.53l-0.06,0.06l-0.01,0.08l-0.07,0.37l-0.02,0.09l0.04,0.08l1.7,3.04
		c-0.84-0.4-2-0.9-3.48-1.5l-0.13-0.05l-0.11,0.09c-0.39,0.3-0.83,0.74-1.34,1.33c-0.5,0.58-0.84,0.99-1.04,1.22l0.48-3.15l0.02-0.1
		l-0.06-0.08l-0.33-0.43l-0.04-0.05l-0.05-0.03L121.13,9.72L121.13,9.72z M57.2,4.01c-4.8,0-8.44,1.46-10.82,4.34
		c-1.96,2.36-2.95,5.38-2.95,8.96c0,2.6,0.56,4.96,1.66,7.03c1.17,2.14,2.78,3.79,4.78,4.92c2.22,1.23,4.83,1.86,7.73,1.86
		c0.38,0,0.76-0.01,1.14-0.03c1.18-0.2,2.04-0.37,2.57-0.51c0.96-0.22,1.79-0.49,2.47-0.81c2-0.95,3.69-2.42,5.02-4.37
		c1.26-1.84,2.03-3.88,2.3-6.06l0.1-3.68c-0.18-1.83-0.76-3.66-1.72-5.47C67.27,6.09,63.14,4.01,57.2,4.01L57.2,4.01z M55.3,12.26
		c0.5-0.94,1.06-1.43,1.67-1.47l0.03,0l0.03-0.01c0.1-0.04,0.21-0.05,0.31-0.05c0.54,0,1.04,0.29,1.54,0.88
		c0.5,0.76,0.83,2.11,0.95,4.01l0,3.6l-0.07,1.38l-0.23,0.92l-0.23,0.96c-0.22,0.61-0.57,1.05-1.08,1.34
		c-0.25,0.13-0.54,0.2-0.87,0.2c-0.61,0-1.1-0.19-1.53-0.57c-0.18-0.23-0.35-0.58-0.5-0.99c-0.37-1.03-0.58-2.38-0.65-4.01
		C54.86,15.29,55.07,13.21,55.3,12.26L55.3,12.26z M44.71,18.48l3.03-0.99l0.06-0.02l0.04-0.04l0.27-0.26l0.07-0.07v-0.1
		c0-0.67-0.02-1.61-0.06-2.89c0.72,0.88,1.32,1.66,1.8,2.33L50,16.55l0.14-0.01c0.51-0.02,1.18-0.2,1.97-0.52
		c0.78-0.29,1.31-0.48,1.62-0.58c-0.46,0.61-1.19,1.54-2.17,2.75l-0.12,0.15l0.11,0.15l1.99,2.88l-3.2-1.07l-0.04-0.01h-0.04h-0.3
		h-0.13l-0.07,0.11c-0.37,0.55-0.92,1.36-1.64,2.42c0,0,0-0.01,0-0.01l0.07-2.76l0-0.11l-0.08-0.08l-0.4-0.4l-0.04-0.04l-0.06-0.02
		L44.71,18.48L44.71,18.48z M81.57,43.61c-2.04,0-3.81,0.26-5.26,0.78c-2.23,0.79-4.11,2.28-5.57,4.41
		c-1.77,2.6-2.67,5.58-2.67,8.84c0,4.6,1.55,8.16,4.61,10.59l3.72,2.05l0.02,0.01l0.03,0.01c1.5,0.45,3.35,0.68,5.49,0.68
		c4.39,0,7.69-1.12,9.81-3.33c0.79-0.86,1.42-2.29,1.92-4.37c0.4-1.6,0.6-3,0.6-4.14c0-0.43-0.03-0.64-0.21-0.72l-0.05-0.03h-0.06
		c-2.09,0-5.17-0.02-9.17-0.07c-0.25,0-0.29,0.06-0.55,1.71c-0.2,1.15-0.35,1.94-0.46,2.33c-0.24,0.77-0.71,1.23-1.44,1.38
		c-0.01,0-0.02,0-0.04,0c-0.03,0-0.06,0-0.09,0c-0.63,0-1.07-0.2-1.33-0.62c-0.7-1.06-1.06-2.57-1.06-4.48
		c0-0.46,0.02-0.99,0.07-1.58c0.11-1.79,0.18-2.46,0.23-2.7c0.19-0.93,0.58-1.67,1.18-2.18c0.27-0.23,0.54-0.34,0.84-0.34
		c0.2,0,0.41,0.05,0.63,0.15c0.56,0.26,0.94,0.71,1.16,1.38c0.08,0.27,0.19,0.96,0.32,2.04l0.01,0.08l0.06,0.06
		c0.09,0.1,0.11,0.11,1.25,0.11c1.34,0,3.11-0.04,5.26-0.13c3.53-0.17,3.58-0.26,3.67-0.44l0.03-0.06l0-0.07
		c-0.07-1.43-0.19-2.53-0.37-3.27c-0.27-1.62-1.1-3.15-2.47-4.54c-1.36-1.38-2.88-2.31-4.51-2.79l-1.62-0.5
		C84.09,43.7,82.77,43.61,81.57,43.61L81.57,43.61z M73.11,53.48c0.24,0,0.58-0.12,0.82-0.69l1.43-2.48l0.02,0.05l0.29,3.35
		l0.01,0.08l0.05,0.06l0.2,0.23l0.05,0.06l0.08,0.02l2.92,0.65l-2.84,1.31l-0.11,0.05l-0.03,0.12l-0.13,0.53l-0.01,0.05l0.01,0.05
		l0.44,3.11L76.24,60c-0.48-0.55-1.16-1.4-2.08-2.6l-0.06-0.08l-0.11-0.01l-0.3-0.03l-0.06-0.01l-0.06,0.02l-3.12,1.29
		c0.48-0.67,1.12-1.74,1.87-3.17l0.08-0.16l-0.12-0.13c-0.51-0.53-1.23-1.36-2.15-2.47L73,53.47l0.03,0.01L73.11,53.48L73.11,53.48z
		 M139.89,43.88l-0.25,0l-25.65,0.07l-0.25,0l0,0.25l0.03,7.01l0,0.25l0.25,0l6.56,0.1l-0.03,19.15l0,0.25l0.25,0l12.09-0.07l0.25,0
		l0-0.25l0.03-19.35l6.46-0.1l0.25,0v-0.25v-6.81V43.88L139.89,43.88z M120.02,49.58l3.36-0.69l0.07-0.01l0.05-0.05l0.33-0.3
		l0.07-0.06l0.01-0.09l0.38-3.2l1.54,2.82l0.04,0.08l0.09,0.03l0.43,0.17l0.06,0.02l0.06-0.01c0.83-0.11,2.05-0.37,3.62-0.77
		l-2.67,2.53l-0.06,0.06l-0.01,0.08l-0.07,0.37l-0.02,0.09l0.04,0.08l1.7,3.04c-0.84-0.4-2-0.9-3.48-1.5l-0.13-0.05l-0.11,0.09
		c-0.39,0.3-0.83,0.73-1.34,1.33c-0.5,0.58-0.84,0.99-1.04,1.22l0.48-3.15l0.02-0.1l-0.06-0.08l-0.33-0.43l-0.04-0.05l-0.05-0.03
		L120.02,49.58L120.02,49.58z M29.9,43.88l-0.25,0L4,43.94l-0.25,0l0,0.25l0.03,7.01l0,0.25l0.25,0l6.56,0.1L10.56,70.7l0,0.25
		l0.25,0l12.09-0.07l0.25,0l0-0.25l0.03-19.35l6.46-0.1l0.25,0v-0.25v-6.81V43.88L29.9,43.88z M10.03,49.58l3.36-0.69l0.07-0.01
		l0.05-0.05l0.33-0.3l0.07-0.06l0.01-0.09l0.38-3.2L15.84,48l0.04,0.08l0.09,0.03l0.43,0.17l0.06,0.02l0.06-0.01
		c0.83-0.11,2.05-0.37,3.62-0.77l-2.67,2.53l-0.06,0.06l-0.01,0.08l-0.07,0.37l-0.02,0.09l0.04,0.08l1.7,3.04
		c-0.84-0.4-2-0.9-3.48-1.5l-0.13-0.05l-0.11,0.09c-0.39,0.3-0.83,0.73-1.34,1.33c-0.5,0.58-0.84,0.99-1.04,1.22l0.48-3.15l0.02-0.1
		l-0.06-0.08l-0.33-0.43l-0.04-0.05l-0.05-0.03L10.03,49.58L10.03,49.58z M195.63,43.88l-0.25,0l-21.16,0.03l-0.25,0v0.25v26.51
		v0.25l0.25,0l21.1,0.03l0.25,0v-0.25V63.5v-0.25h-0.25h-9.49l-0.03-1.82l8.98,0.1l0.25,0l0-0.25L195,53.8l0-0.25h-0.25h-8.9
		c-0.07-0.94-0.12-1.72-0.14-2.31l0.02-0.02l9.7-0.13l0.25,0l0-0.25l-0.03-6.71L195.63,43.88L195.63,43.88z M175.52,56.8l3.42-0.46
		l0.07-0.01l0.05-0.04l0.33-0.27l0.07-0.06l0.02-0.09l0.53-3.11l1.46,2.88l0.05,0.11l0.12,0.03c0.21,0.05,0.43,0.07,0.65,0.07
		c0.42,0,1.05-0.08,1.87-0.24c0.58-0.11,1.05-0.18,1.42-0.21c-0.03,0.03-0.07,0.06-0.11,0.1c-0.39,0.34-0.52,0.47-0.57,0.53
		l-2.07,1.74l-0.13,0.11l0.05,0.16c0.16,0.52,0.41,1.14,0.78,1.9l0.24,0.46l0.6,1.16l-0.14-0.04l-3.08-1.67l-0.03-0.02l-0.03-0.01
		l-0.27-0.07l-0.14-0.03l-0.1,0.1l-2.36,2.33c0-0.02,0.02-0.12,0.12-0.41c0.09-0.29,0.12-0.51,0.09-0.68l0.45-1.97l0.03-0.12
		l-0.07-0.09l-0.36-0.46l-0.03-0.04l-0.05-0.02L175.52,56.8L175.52,56.8z M156.58,43.88c-4.8,0-8.44,1.46-10.82,4.34
		c-1.96,2.36-2.95,5.38-2.95,8.96c0,2.6,0.56,4.96,1.66,7.03c1.17,2.14,2.78,3.79,4.78,4.92c2.22,1.23,4.83,1.86,7.73,1.86
		c0.38,0,0.76-0.01,1.14-0.03c1.18-0.2,2.04-0.37,2.57-0.51c0.96-0.22,1.79-0.49,2.47-0.81c2-0.95,3.69-2.42,5.02-4.37
		c1.26-1.84,2.03-3.88,2.3-6.06l0.1-3.68c-0.18-1.83-0.76-3.66-1.72-5.47C166.65,45.96,162.52,43.88,156.58,43.88L156.58,43.88z
		 M154.68,52.12c0.5-0.94,1.06-1.43,1.67-1.47l0.03,0l0.03-0.01c0.1-0.04,0.21-0.05,0.31-0.05c0.54,0,1.04,0.29,1.54,0.88
		c0.5,0.76,0.83,2.11,0.95,4.01l0,3.6l-0.07,1.38l-0.22,0.91l-0.24,0.97c-0.22,0.61-0.57,1.05-1.08,1.34
		c-0.25,0.13-0.54,0.2-0.87,0.2c-0.61,0-1.1-0.19-1.53-0.57c-0.18-0.23-0.35-0.58-0.5-0.99c-0.37-1.03-0.58-2.38-0.65-4.01
		C154.24,55.16,154.45,53.07,154.68,52.12L154.68,52.12z M144.09,58.35l3.03-0.99l0.06-0.02l0.04-0.04l0.27-0.26l0.07-0.07v-0.1
		c0-0.67-0.02-1.61-0.06-2.89c0.72,0.88,1.32,1.66,1.8,2.33l0.08,0.11l0.14-0.01c0.51-0.02,1.18-0.2,1.97-0.52
		c0.78-0.29,1.31-0.48,1.62-0.58c-0.46,0.61-1.19,1.54-2.17,2.75l-0.12,0.15l0.11,0.15l1.99,2.88l-3.2-1.07l-0.04-0.01h-0.04h-0.3
		h-0.13l-0.07,0.11c-0.37,0.55-0.92,1.36-1.64,2.42c0,0,0-0.01,0-0.01l0.07-2.76l0-0.11l-0.08-0.08l-0.4-0.4l-0.04-0.04l-0.06-0.02
		L144.09,58.35L144.09,58.35z M40.91,43.88L40.91,43.88L40.91,43.88c-0.23,0-0.43,0.09-0.56,0.26l-0.03,0.04l-0.01,0.05l-7.77,26.21
		l-0.04,0.12l0.08,0.1l0.13,0.17l0.07,0.09l0.12,0l3,0.03l3.05,0.03c0.38,0,0.73,0,1.06,0c3.08,0,3.33-0.14,3.45-0.2l0.08-0.05
		l0.03-0.09c0.14-0.4,0.42-1.48,0.84-3.23c0.07-0.24,0.11-0.29,0.11-0.3l0.02-0.02l0.01-0.02c0.06-0.1,0.1-0.11,0.15-0.11
		c0.52-0.01,1.05-0.02,1.59-0.02c1.08,0,2.25,0.03,3.48,0.09c0.18,0.02,0.4,0.04,0.64,0.07c0.18,0.02,0.27,0.08,0.31,0.13
		c0.22,0.7,0.48,1.78,0.78,3.19c0.14,0.4,0.41,0.47,0.56,0.48c0.16,0.01,1.01,0.03,2.77,0.05c1.77,0.02,3.21,0.03,4.32,0.03
		C59.69,71,60.18,71,60.61,71c0.88,0,1.56-0.02,2.01-0.05c0.27-0.07,0.41-0.16,0.49-0.3c0.06-0.11,0.07-0.23,0.04-0.35
		c-0.16-0.59-2.7-9.44-7.34-25.58c-0.13-0.33-0.33-0.75-0.68-0.75H55.1l-0.04,0L40.91,43.88L40.91,43.88z M46.3,59.96
		c-0.03-0.09-0.05-0.28,0-0.69c0.11-0.93,0.32-2.12,0.63-3.53c0.39-1.81,0.64-2.95,0.75-3.43c0.37,1.68,0.87,4.18,1.52,7.65
		c0.01,0.04,0.01,0.05,0.01,0.06c0,0,0,0,0,0c0,0-0.02,0.01-0.05,0.01c0,0-0.01,0-0.02,0c-0.12,0-0.31,0-0.51,0
		C48.03,60.03,47.25,60.01,46.3,59.96L46.3,59.96z M48.31,62.76l3.47-1.73l0.14-0.07v-0.15c0-0.48-0.05-1.14-0.17-2.02
		c-0.11-0.85-0.17-1.34-0.21-1.64l2.54,2.45l0.11,0.1l0.14-0.04c0.59-0.18,1.3-0.49,2.13-0.91c1.04-0.55,1.54-0.82,1.78-0.94
		c-0.65,1.33-1.32,2.5-2,3.47l-0.08,0.11l0.05,0.13l0.13,0.33l0.02,0.05l0.04,0.04l2.84,2.78c-0.01,0.04-0.02,0.07-0.03,0.11
		c-0.98-0.3-2.44-0.55-4.34-0.72l-0.18-0.02l-0.07,0.16c-0.34,0.75-0.9,1.85-1.67,3.28c-0.01-0.08-0.02-0.21-0.01-0.41l-0.43-3.17
		l-0.02-0.15l-0.14-0.05c-0.92-0.34-2.27-0.61-4.14-0.83L48.31,62.76L48.31,62.76z"/>
</g>
</svg>
